<svg width="245" height="53" viewBox="0 0 245 53" fill="none" xmlns="http://www.w3.org/2000/svg">
<path d="M11.6194 45.0496L11.3545 44.8058C11.1798 44.6433 11.0661 44.5418 11.0092 44.493C10.9605 44.4524 10.7452 44.2777 10.3633 43.969L10.3592 43.9405L10.4526 43.8308H10.4851C10.5908 43.9161 10.672 43.9771 10.7289 44.0177C10.7898 44.0583 10.8386 44.0827 10.8752 44.0868C10.9158 44.0908 10.9645 44.0705 11.0214 44.0177C11.0823 43.9649 11.1555 43.8877 11.2489 43.7821L11.6917 43.2864L12.5733 42.283L12.943 41.8564C13.0852 41.6899 13.1746 41.5802 13.2071 41.5274C13.2436 41.4745 13.2599 41.4339 13.2599 41.4055C13.2599 41.377 13.2436 41.3405 13.2152 41.2958C13.1867 41.2511 13.0933 41.1577 12.9471 41.0195L12.943 40.9911L13.0364 40.8814L13.0689 40.8774C13.0771 40.8855 13.203 40.9992 13.4427 41.2227C13.5442 41.3161 13.6214 41.3852 13.6824 41.438C13.7271 41.4786 13.9424 41.6492 14.3243 41.9621L14.3283 41.9946L14.2349 42.1042L14.2064 42.1002C14.0643 41.9905 13.9668 41.9174 13.918 41.8889C13.8652 41.8564 13.8246 41.8442 13.7961 41.8442C13.7677 41.8442 13.7311 41.8646 13.6824 41.9011C13.6336 41.9377 13.5402 42.0352 13.4021 42.1855L12.9999 42.6446L12.1183 43.648L11.7486 44.0746C11.6064 44.2411 11.517 44.3508 11.4805 44.4036C11.4439 44.4565 11.4277 44.4971 11.4277 44.5255C11.4277 44.554 11.4439 44.5905 11.4723 44.6352C11.5008 44.6799 11.5942 44.7693 11.7445 44.9115L11.7486 44.944L11.6552 45.0536H11.6227L11.6194 45.0496ZM12.7074 40.6945L12.7033 40.7311L12.6017 40.8164L12.5692 40.8124C12.492 40.723 12.427 40.658 12.3702 40.6092C12.3174 40.5605 12.2727 40.5402 12.2402 40.5402C12.2077 40.5442 12.163 40.5605 12.1142 40.593C12.0655 40.6255 11.9558 40.7067 11.7892 40.8367C11.6227 40.9667 11.5048 41.0602 11.4358 41.117L9.64014 42.6121C9.56295 42.6771 9.51826 42.7339 9.50607 42.7908C9.49389 42.8477 9.50201 42.9046 9.53045 42.9574C9.55889 43.0102 9.62389 43.0955 9.71733 43.2133L9.71326 43.2458L9.60764 43.3311H9.57108C9.40857 43.1199 9.29888 42.9858 9.24607 42.9208C9.12013 42.7705 9.01451 42.6527 8.92513 42.5633L9.25013 41.0927L9.68483 38.972C9.73764 38.7161 9.78233 38.4642 9.81483 38.2164L8.09231 39.6464C8.03949 39.6911 7.92574 39.7886 7.75918 39.9389C7.58855 40.0892 7.48293 40.1867 7.4423 40.2314C7.40167 40.2802 7.38136 40.3167 7.38136 40.3492C7.38136 40.3817 7.39761 40.4264 7.43418 40.4833C7.46668 40.5402 7.52355 40.6133 7.59261 40.7027L7.58855 40.7352L7.48699 40.8205H7.45043C7.35699 40.6945 7.21886 40.5198 7.03198 40.3005C6.86136 40.1014 6.73542 39.9552 6.6501 39.8698L6.65417 39.8333L6.75573 39.748L6.78823 39.752C6.87354 39.8495 6.94261 39.9186 6.99542 39.9633C7.04823 40.008 7.09292 40.0283 7.12542 40.0242C7.15792 40.0202 7.19855 39.9998 7.2473 39.9714C7.29199 39.9389 7.40167 39.8617 7.56824 39.7317C7.7348 39.6017 7.85262 39.5083 7.92168 39.4473L8.97794 38.5698L9.58733 38.0579C9.78639 37.8873 9.98139 37.7208 10.1845 37.5501C10.2211 37.6436 10.2983 37.7979 10.4161 38.0092L10.3633 38.322L10.1805 39.2726L9.56295 42.3317L11.2692 40.9139C11.3383 40.857 11.4561 40.7555 11.6267 40.6052C11.7974 40.4548 11.8989 40.3614 11.9274 40.3208C11.9599 40.2802 11.9761 40.2517 11.9802 40.2273C11.9842 40.203 11.9761 40.1664 11.9558 40.1177C11.9355 40.0689 11.8745 39.9836 11.773 39.8617L11.777 39.8292L11.8827 39.7398L11.9152 39.7439C11.968 39.8292 12.0695 39.9552 12.2117 40.1258C12.3986 40.3452 12.5652 40.532 12.7155 40.6905L12.7074 40.6945ZM8.67731 37.3267L8.64481 37.3145L8.57981 37.1886L8.58794 37.1561C8.80325 37.0342 8.93326 36.957 8.97388 36.9164C9.01451 36.8757 9.04294 36.8026 9.05513 36.697C9.07138 36.5914 9.05919 36.4654 9.03076 36.3192C8.99826 36.1729 8.9495 36.0348 8.88044 35.9007C8.787 35.722 8.66919 35.5757 8.527 35.462C8.38481 35.3523 8.23043 35.2873 8.05575 35.2751C7.88512 35.2589 7.71855 35.2954 7.55605 35.3767C7.4423 35.4335 7.35292 35.5026 7.28792 35.5839C7.22292 35.6651 7.1823 35.7545 7.17011 35.8479C7.15386 35.9414 7.15792 36.0389 7.17823 36.1404C7.19855 36.242 7.23917 36.3882 7.30011 36.5792C7.36105 36.7661 7.40574 36.9123 7.43011 37.0179C7.45855 37.1276 7.47074 37.2414 7.4748 37.3592C7.47886 37.477 7.45855 37.5867 7.42199 37.6883C7.38136 37.7898 7.32042 37.8833 7.23511 37.9767C7.1498 38.0661 7.04823 38.1433 6.93042 38.2042C6.60948 38.3667 6.28854 38.387 5.9676 38.2692C5.64665 38.1514 5.39071 37.9076 5.19977 37.5298C5.12259 37.3795 5.05758 37.2089 5.00477 37.0179C4.95196 36.8229 4.92352 36.6361 4.92352 36.4573L4.9479 36.4248C5.12665 36.3842 5.36228 36.2907 5.65884 36.1526L5.69134 36.1648L5.76041 36.2989L5.75228 36.3273C5.54915 36.437 5.41915 36.5061 5.3704 36.5386C5.32165 36.5751 5.29321 36.6848 5.28915 36.8717C5.28509 37.0626 5.32978 37.2414 5.41915 37.4161C5.49228 37.5623 5.59384 37.6801 5.71572 37.7776C5.83759 37.8751 5.97978 37.9239 6.13822 37.9239C6.29666 37.9239 6.44291 37.8914 6.57292 37.8264C6.67448 37.7736 6.75573 37.7086 6.81261 37.6314C6.86948 37.5542 6.90604 37.4689 6.92229 37.3836C6.93448 37.2982 6.93042 37.2089 6.91417 37.1154C6.89386 37.022 6.84104 36.8554 6.76385 36.6198C6.6501 36.2948 6.58917 36.047 6.58104 35.8804C6.57291 35.7139 6.61354 35.5514 6.70292 35.4051C6.79229 35.2548 6.93042 35.1329 7.12136 35.0395C7.48699 34.8526 7.87293 34.8485 8.267 35.0192C8.66513 35.1898 8.96982 35.4904 9.1892 35.9129C9.37201 36.2664 9.46545 36.6076 9.47764 36.9407L9.45326 36.9732C9.33545 37.0139 9.07544 37.1276 8.67325 37.3186L8.67731 37.3267ZM3.22944 32.2607L3.24569 32.2282C3.41632 32.1916 3.70882 32.1063 4.11914 31.9722L4.14757 31.9885L4.1882 32.1185L4.17195 32.1469L3.9282 32.2607C3.79819 32.3176 3.71694 32.3582 3.68851 32.3744C3.66007 32.3907 3.64382 32.411 3.63569 32.4354C3.62757 32.4557 3.63569 32.5207 3.66007 32.6223C3.68444 32.7279 3.71694 32.8416 3.75757 32.9635L3.9282 33.4795C4.3507 33.3616 4.59039 33.2885 4.65539 33.2682L6.26416 32.7482L6.80042 32.5694C7.00761 32.5004 7.14167 32.4516 7.20261 32.4232C7.25949 32.3948 7.29605 32.3704 7.3123 32.346C7.32449 32.3216 7.33261 32.2851 7.32855 32.2282C7.32855 32.1754 7.29605 32.0494 7.23917 31.8504L7.25136 31.826L7.38949 31.7813L7.41792 31.7935C7.55605 32.2648 7.63324 32.5288 7.65355 32.5816C7.67387 32.6426 7.76324 32.8985 7.92981 33.3535L7.91356 33.382L7.77543 33.4266L7.75105 33.4104C7.68605 33.2398 7.64136 33.1301 7.61293 33.0773C7.58449 33.0244 7.55605 32.992 7.53168 32.9798C7.5073 32.9676 7.46668 32.9635 7.40574 32.9676C7.3448 32.9716 7.2148 33.0082 7.01573 33.0691L6.43073 33.252L4.82196 33.772C4.79352 33.7801 4.55383 33.8654 4.10695 34.0238L4.24101 34.4301C4.29383 34.5967 4.34664 34.7429 4.39539 34.8607C4.44414 34.9826 4.48477 35.0476 4.52133 35.0557C4.55789 35.0638 4.66352 35.0517 4.83414 35.0151L5.09821 34.9623L5.13071 34.9785L5.17134 35.1045L5.15509 35.1329C4.71227 35.2792 4.42789 35.3807 4.29789 35.4376L4.26539 35.4214C4.17601 35.1004 4.00945 34.5682 3.76976 33.8288C3.52194 33.0732 3.34319 32.5491 3.22538 32.2485L3.22944 32.2607ZM3.09131 31.4279L3.0385 31.0704C3.006 30.8347 2.98162 30.6844 2.96943 30.6113C2.95725 30.5463 2.90037 30.2782 2.80287 29.8028L2.81912 29.7785L2.96131 29.7541L2.98569 29.7744C3.01412 29.9044 3.0385 30.0019 3.05475 30.075C3.07506 30.1441 3.09944 30.1929 3.12381 30.2213C3.15225 30.2497 3.20506 30.2619 3.28225 30.2579C3.35944 30.2538 3.46913 30.2416 3.60725 30.2172L4.26539 30.1075L5.58978 29.876L6.14635 29.7744C6.36166 29.7338 6.49979 29.7053 6.56073 29.685C6.62167 29.6647 6.66229 29.6444 6.67854 29.6241C6.69479 29.6038 6.70698 29.5632 6.71104 29.5103C6.7151 29.4575 6.70292 29.3275 6.67854 29.1285L6.69073 29.1041L6.83292 29.0797L6.86136 29.096C6.86136 29.1041 6.88573 29.2747 6.93448 29.5997C6.95479 29.7338 6.97104 29.8394 6.98323 29.9166C6.99542 29.9775 7.04823 30.2457 7.1498 30.725L7.13355 30.7535L6.99136 30.7779L6.97104 30.7575C6.93042 30.5829 6.90198 30.4691 6.88167 30.4122C6.86136 30.3554 6.83698 30.3188 6.81667 30.3025C6.79635 30.2863 6.75167 30.2782 6.69479 30.2741C6.63385 30.2741 6.49979 30.2863 6.29666 30.3229L4.36695 30.66L3.81038 30.7616C3.59507 30.8022 3.45288 30.8307 3.39194 30.851C3.331 30.8713 3.29038 30.8916 3.27413 30.9119C3.25381 30.9322 3.24569 30.9729 3.24163 31.0216C3.23756 31.0744 3.24975 31.2044 3.27819 31.4035L3.26194 31.4319L3.11975 31.4563L3.09537 31.436L3.09131 31.4279ZM2.56318 25.5412L2.58756 25.5128C2.76224 25.5291 3.06694 25.5331 3.49757 25.525L3.52194 25.5453L3.526 25.6794L3.50163 25.7037L3.2335 25.7403C3.09131 25.7566 3.00194 25.7687 2.9735 25.7809C2.941 25.7891 2.91662 25.8053 2.90443 25.8256C2.88818 25.8459 2.88006 25.9069 2.87193 26.0125C2.86381 26.1181 2.85975 26.2359 2.86381 26.3659L2.87193 26.9103C3.31069 26.9184 3.56257 26.9225 3.63163 26.9225L5.32165 26.8941L5.88634 26.8778C6.10572 26.8738 6.24791 26.8656 6.31291 26.8534C6.37791 26.8453 6.41854 26.8291 6.43885 26.8128C6.45916 26.7925 6.47541 26.76 6.4876 26.7072C6.49979 26.6544 6.51198 26.5244 6.51604 26.3212L6.53229 26.3009L6.67854 26.2969L6.70292 26.3172C6.69479 26.8088 6.69479 27.085 6.69479 27.1419C6.69479 27.2028 6.70698 27.475 6.73135 27.9625L6.71104 27.9869L6.56479 27.991L6.54854 27.9666C6.53635 27.7878 6.52416 27.6659 6.51198 27.6091C6.49979 27.5522 6.48354 27.5116 6.46323 27.4913C6.44698 27.4709 6.40635 27.4547 6.34541 27.4425C6.28447 27.4303 6.15041 27.4263 5.94322 27.4303L5.32978 27.4344L3.63976 27.4628C3.60726 27.4628 3.35538 27.475 2.88412 27.4994L2.89225 27.926C2.89631 28.1047 2.90037 28.255 2.91256 28.385C2.92475 28.515 2.94506 28.5881 2.97756 28.6085C3.01006 28.6288 3.11569 28.645 3.29038 28.6572L3.5585 28.6816L3.58288 28.706L3.58694 28.84L3.56257 28.8644C3.09537 28.8766 2.79068 28.8888 2.65256 28.905L2.62412 28.8766C2.63224 28.5435 2.63224 27.9869 2.62006 27.2109C2.60787 26.4187 2.58756 25.8622 2.56724 25.5412H2.56318ZM2.51443 24.4322L2.49818 24.4078C2.60381 23.9447 2.66474 23.6765 2.68099 23.6034C2.69318 23.5384 2.73787 23.2662 2.81506 22.7868L2.83943 22.7665L2.98162 22.795L2.99787 22.8234C2.97756 22.9534 2.96131 23.055 2.95725 23.1281C2.95318 23.2012 2.95725 23.254 2.96943 23.2906C2.98569 23.3271 3.03037 23.3556 3.1035 23.384C3.17663 23.4084 3.28631 23.4328 3.42038 23.4612L4.07445 23.5912L4.9804 23.7659C5.28102 23.8228 5.5004 23.8593 5.64259 23.8715C5.78478 23.8878 5.90666 23.8837 6.01228 23.8593C6.11791 23.835 6.21135 23.7903 6.29666 23.7212C6.38198 23.6522 6.46323 23.5425 6.53635 23.3962C6.60948 23.25 6.66635 23.0793 6.70292 22.8843C6.74354 22.6771 6.75167 22.4781 6.73135 22.2871C6.71104 22.0962 6.6501 21.9418 6.56073 21.8281C6.46729 21.7143 6.33729 21.6249 6.1626 21.5599C5.98791 21.4949 5.74416 21.434 5.42321 21.3731L4.5457 21.2024C4.39539 21.174 4.19226 21.1374 3.93226 21.0927C3.67226 21.0481 3.52194 21.0318 3.47725 21.0399C3.43663 21.0521 3.40007 21.0765 3.36756 21.1212C3.33913 21.1659 3.30256 21.2959 3.25381 21.5153L3.22538 21.5356L3.09131 21.5112L3.071 21.4828C3.14006 21.2065 3.19288 20.9871 3.22538 20.8165C3.25381 20.6743 3.29038 20.4509 3.331 20.1462L3.35944 20.1259L3.49757 20.1502L3.51788 20.1827C3.48538 20.3615 3.46913 20.4752 3.47319 20.5321C3.47319 20.589 3.48132 20.6256 3.49757 20.654C3.51382 20.6784 3.54225 20.7027 3.58694 20.719C3.62757 20.7393 3.75351 20.7677 3.95663 20.8124L4.59852 20.9424L5.46384 21.109C5.80916 21.174 6.08135 21.2431 6.27229 21.304C6.46729 21.369 6.6176 21.4584 6.72729 21.5762C6.83698 21.694 6.92636 21.8199 6.98729 21.9621C7.04823 22.1043 7.0848 22.279 7.09292 22.4821C7.10105 22.6853 7.0848 22.8965 7.04011 23.1078C6.98729 23.3718 6.91417 23.5993 6.81667 23.7903C6.71917 23.9812 6.60948 24.1275 6.4876 24.225C6.36979 24.3225 6.24791 24.3875 6.1301 24.42C6.01228 24.4484 5.88228 24.4606 5.73197 24.4443C5.58165 24.4322 5.35821 24.3956 5.06165 24.3387L3.96882 24.1275L3.41225 24.0259C3.19694 23.9853 3.05475 23.965 2.98975 23.9609C2.92475 23.9568 2.88006 23.965 2.85568 23.9772C2.83131 23.9934 2.80693 24.0218 2.78256 24.0706C2.75818 24.1193 2.72568 24.2412 2.67693 24.4403L2.65256 24.4606L2.51037 24.4322H2.51443ZM4.95196 16.0064L4.98852 15.9902C5.1429 16.0714 5.42321 16.1933 5.82541 16.3518L5.83759 16.3802L5.78478 16.5061L5.75228 16.5183L5.49228 16.4493C5.35415 16.4086 5.26884 16.3883 5.23634 16.3843C5.20384 16.3802 5.1754 16.3843 5.15509 16.3964C5.13477 16.4086 5.09821 16.4614 5.04946 16.5549C5.00071 16.6483 4.95196 16.758 4.90321 16.8758L4.69602 17.3796C5.09415 17.5583 5.32571 17.6558 5.39071 17.6843L6.95886 18.314L7.48699 18.5171C7.69012 18.5983 7.82418 18.6471 7.88918 18.6593C7.95418 18.6755 7.99971 18.6796 8.02408 18.6674C8.04846 18.6593 8.0769 18.6308 8.1094 18.5902C8.1419 18.5496 8.20284 18.4318 8.28815 18.2449L8.31252 18.2327L8.44659 18.2855L8.45878 18.3139C8.25971 18.7649 8.15002 19.0168 8.12565 19.0696C8.10127 19.1264 8.00783 19.3824 7.83721 19.8374L7.80877 19.8496L7.6747 19.7968L7.66658 19.7683C7.72752 19.5977 7.76408 19.484 7.77627 19.423C7.78846 19.3661 7.78846 19.3214 7.78033 19.2971C7.77221 19.2727 7.73971 19.2402 7.69095 19.2077C7.6422 19.1711 7.52033 19.1143 7.32533 19.0411L6.76063 18.8096L5.19249 18.1799C5.16405 18.1677 4.92842 18.0824 4.48154 17.9199L4.31904 18.318C4.25404 18.4805 4.19716 18.6227 4.15654 18.7486C4.11591 18.8705 4.10372 18.9477 4.1281 18.9761C4.14841 19.0086 4.23779 19.0614 4.39623 19.1427L4.63186 19.2686L4.64811 19.3011L4.59936 19.423L4.57092 19.4352C4.13622 19.2646 3.85185 19.1589 3.71372 19.1224L3.69747 19.0899C3.83966 18.7852 4.05497 18.2733 4.34748 17.5542C4.64811 16.8189 4.85123 16.2989 4.95686 15.9983L4.95196 16.0064ZM8.49856 10.8348L8.53513 10.8308C8.657 10.9526 8.88857 11.1476 9.22576 11.4198L9.22982 11.4523L9.14451 11.558L9.11201 11.562L8.8845 11.4198C8.76263 11.3426 8.6895 11.2979 8.657 11.2817C8.62856 11.2695 8.60013 11.2654 8.57575 11.2695C8.55138 11.2736 8.50263 11.3183 8.4295 11.3914C8.35637 11.4686 8.27512 11.5539 8.19387 11.6555L7.84856 12.078C8.17762 12.3623 8.36856 12.5289 8.42137 12.5695L9.73764 13.6258L10.1805 13.9752C10.3511 14.1092 10.4648 14.1945 10.5217 14.227C10.5786 14.2595 10.6192 14.2758 10.6477 14.2758C10.6761 14.2717 10.7086 14.2595 10.7533 14.227C10.798 14.1945 10.8873 14.1011 11.0255 13.9467L11.0498 13.9427L11.1636 14.032L11.1677 14.0605C10.8427 14.4342 10.6639 14.6414 10.6273 14.6861C10.5867 14.7349 10.4201 14.9502 10.1236 15.3361L10.0911 15.3402L9.97733 15.2508V15.2224C10.087 15.0761 10.152 14.9786 10.1845 14.9258C10.213 14.873 10.2251 14.8324 10.2251 14.8039C10.2251 14.7755 10.2048 14.7389 10.1642 14.6902C10.1276 14.6414 10.0261 14.552 9.86358 14.422L9.39232 14.0361L8.07606 12.9798C8.05168 12.9595 7.85262 12.8092 7.47074 12.5248L7.19855 12.858C7.0848 12.9961 6.99136 13.118 6.91823 13.2195C6.84104 13.3252 6.81261 13.3942 6.82479 13.4308C6.83698 13.4673 6.90604 13.5445 7.03198 13.6705L7.22292 13.8614L7.22698 13.898L7.14167 13.9995L7.10917 14.0036C6.74354 13.7152 6.50385 13.5323 6.38604 13.4552L6.38198 13.4186C6.60542 13.1708 6.96292 12.7442 7.45855 12.1389C7.96231 11.5214 8.30762 11.0867 8.49856 10.8267V10.8348ZM9.12826 10.1604L9.13232 10.1279C9.62389 9.68918 9.94077 9.4048 10.0748 9.27886C10.538 8.84823 10.9483 8.46229 11.3017 8.12104L11.3261 8.1251C11.4155 8.29166 11.5902 8.52729 11.842 8.83198L11.8461 8.86042L11.7405 8.95792H11.7039C11.6917 8.94573 11.6836 8.93355 11.6755 8.92136C11.5617 8.80354 11.448 8.69792 11.3261 8.60448C11.2002 8.64917 11.0539 8.73448 10.8833 8.86854C10.7127 9.00261 10.5908 9.10417 10.5095 9.18136C10.3998 9.28292 10.2617 9.42511 10.1033 9.5998L10.412 9.94512L10.7695 10.3351L11.1636 10.7698C11.3261 10.6358 11.4683 10.5098 11.5983 10.392C11.7283 10.2701 11.8339 10.1645 11.9111 10.0751C11.9924 9.98574 12.033 9.92887 12.0411 9.90856C12.0452 9.88418 12.0411 9.85574 12.0249 9.82324C12.0086 9.79074 11.972 9.73793 11.9152 9.6648L11.8014 9.52668V9.49418L11.8989 9.4048H11.9314C12.0736 9.55918 12.2117 9.71762 12.3539 9.87606L12.8089 10.3392L12.8049 10.3717L12.7074 10.4611H12.6749L12.5408 10.3473C12.4352 10.262 12.3702 10.2092 12.3458 10.197C12.3214 10.1848 12.293 10.1807 12.2605 10.1848C12.228 10.1889 12.163 10.2254 12.0695 10.2986C11.9761 10.3676 11.8583 10.4733 11.708 10.6114C11.6267 10.6886 11.5048 10.8064 11.3423 10.9689C11.4439 11.0948 11.6267 11.2939 11.8867 11.5661C12.163 11.8586 12.3702 12.0739 12.5083 12.208L12.8983 11.8464C13.2436 11.5295 13.4508 11.3264 13.5321 11.237C13.6092 11.1476 13.6742 11.0542 13.7189 10.9486C13.7027 10.9039 13.6539 10.8104 13.5727 10.6642C13.4914 10.5179 13.4386 10.4326 13.4142 10.3961L13.4224 10.3636L13.5239 10.2701H13.5524C13.5971 10.3432 13.6824 10.4611 13.8124 10.6195C13.9424 10.782 14.0561 10.9161 14.1577 11.0217V11.0501C13.8814 11.2939 13.5239 11.6148 13.0852 12.017L12.5042 12.5452C12.3702 12.6711 12.2361 12.8052 12.098 12.9514H12.0655L12.0005 12.8823L11.9964 12.8458C12.0411 12.728 12.0614 12.6548 12.0655 12.6345C12.0695 12.6142 11.9639 12.4801 11.7486 12.2405C11.5373 11.9967 11.3708 11.8139 11.257 11.692L10.5298 10.9201L10.0789 10.4448C9.98139 10.3392 9.90014 10.2579 9.83514 10.197C9.77014 10.132 9.72139 10.0914 9.68889 10.0711C9.65639 10.0507 9.62795 10.0386 9.6117 10.0345C9.59139 10.0304 9.56701 10.0345 9.53858 10.0467C9.51014 10.0589 9.46951 10.0832 9.4167 10.1239L9.24201 10.262H9.20951L9.11201 10.1564L9.12826 10.1604ZM14.4177 8.23073C14.6289 7.61728 14.7752 7.16228 14.8605 6.87383C14.9458 6.58133 15.0149 6.3457 15.0677 6.15476C15.1246 5.96789 15.153 5.84601 15.1571 5.79726L15.0677 5.63476L15.084 5.5982C15.218 5.53319 15.3602 5.46007 15.5105 5.37882C15.543 5.3585 15.6771 5.28538 15.9086 5.15131L15.9452 5.15944L16.0102 5.27725L16.0021 5.30975C15.8436 5.39507 15.7421 5.46413 15.6933 5.51288C15.6446 5.56163 15.5918 5.6632 15.5308 5.81351C15.4699 5.96382 15.4049 6.14664 15.3318 6.35383L14.8239 7.84885L17.1355 8.40948C17.5093 8.50292 17.7124 8.5476 17.753 8.55167C17.7937 8.55573 17.8627 8.53542 17.9562 8.48667L17.9846 8.49479L18.0455 8.60042L18.0374 8.62885C17.9359 8.67761 17.8302 8.72636 17.7246 8.78729C17.6637 8.81979 17.5255 8.90105 17.3184 9.02292C17.0827 8.96198 16.8755 8.90917 16.7008 8.86042C16.5221 8.81167 15.7786 8.63698 14.4664 8.32416L14.7671 8.86042L15.0433 9.35199C15.153 9.54293 15.2261 9.66074 15.2627 9.70949C15.3033 9.7623 15.3358 9.79074 15.3602 9.79887C15.3886 9.80699 15.4252 9.80699 15.478 9.79481C15.5308 9.78262 15.6486 9.7298 15.8315 9.64043L15.8599 9.64449L15.929 9.77043L15.9208 9.79887C15.9127 9.80293 15.7624 9.88012 15.4658 10.0304C15.344 10.0914 15.2505 10.1442 15.1815 10.1807C15.1286 10.2092 14.8889 10.3514 14.4664 10.5992L14.4339 10.5911L14.3649 10.4651L14.3771 10.4367C14.5314 10.3432 14.633 10.2782 14.6777 10.2376C14.7264 10.197 14.7508 10.1645 14.763 10.1401C14.7711 10.1157 14.7671 10.0711 14.7508 10.0142C14.7305 9.95731 14.6736 9.83543 14.5761 9.65668L13.6296 7.95853L13.3492 7.47103C13.2396 7.28009 13.1664 7.16228 13.1299 7.10946C13.0933 7.05665 13.0608 7.02821 13.0324 7.02009C13.008 7.0079 12.9674 7.01196 12.9146 7.02415C12.8617 7.03634 12.7439 7.08915 12.5611 7.18259L12.5286 7.17446L12.4595 7.04852L12.4717 7.02009L12.7927 6.85758C13.0039 6.75196 13.1421 6.67883 13.2071 6.64227C13.2639 6.60977 13.5036 6.47164 13.9261 6.21976L13.9546 6.22789L14.0236 6.35383L14.0155 6.38227C13.9018 6.45133 13.8132 6.50411 13.7523 6.54474C13.6913 6.58536 13.6548 6.62599 13.6345 6.65849C13.6182 6.69505 13.6223 6.74787 13.6507 6.82099C13.6792 6.89412 13.7279 6.99162 13.797 7.11349L14.1138 7.69444L14.4104 8.22257L14.4177 8.23073ZM18.2852 8.50698L18.2527 8.49073L18.2121 8.36479L18.2284 8.33635C18.3421 8.29979 18.4274 8.26323 18.4924 8.23073C18.5574 8.19822 18.594 8.16572 18.6062 8.13322C18.6184 8.10072 18.6184 8.05604 18.6062 7.99916C18.594 7.93822 18.5574 7.81228 18.5006 7.60916C18.4437 7.41009 18.399 7.26384 18.3706 7.17853L17.6474 4.96444C17.619 4.871 17.5784 4.806 17.5296 4.7735C17.4809 4.741 17.424 4.72475 17.363 4.73287C17.3021 4.741 17.1965 4.76537 17.0543 4.81006L17.0259 4.79381L16.9852 4.66381L16.9974 4.63131C17.2534 4.55818 17.424 4.50943 17.5012 4.48506C17.688 4.42412 17.8384 4.37131 17.9562 4.32256L19.2074 5.17163L21.0275 6.36195C21.2468 6.50821 21.4662 6.64227 21.6856 6.76415L20.9909 4.64756C20.9706 4.58256 20.9218 4.44443 20.8446 4.22912C20.7675 4.01786 20.7146 3.8838 20.6862 3.82692C20.6578 3.77411 20.6293 3.73755 20.6009 3.72536C20.5725 3.71317 20.5237 3.71317 20.4546 3.7213C20.3896 3.72942 20.3003 3.7538 20.1906 3.7863L20.1621 3.77005L20.1215 3.64411L20.1337 3.61161C20.284 3.57098 20.4993 3.51005 20.7756 3.42067C21.0275 3.33942 21.2103 3.27442 21.32 3.22973L21.3525 3.24598L21.3931 3.37192L21.3768 3.40036C21.255 3.44098 21.1656 3.47755 21.1006 3.51005C21.0396 3.54255 21.0031 3.57505 20.995 3.60755C20.9868 3.64005 20.9868 3.68474 20.999 3.73755C21.0112 3.79036 21.0437 3.92036 21.1046 4.11943C21.1615 4.31849 21.2062 4.46474 21.2346 4.55412L21.6612 5.85414L21.9131 6.60571C21.9984 6.85352 22.0797 7.09727 22.165 7.34509C22.0634 7.34509 21.8928 7.35728 21.649 7.38572L21.3768 7.21915L20.5562 6.69508L17.9277 4.98069L18.6143 7.08102C18.6427 7.16634 18.6915 7.31259 18.7687 7.5279C18.8459 7.74322 18.8946 7.86916 18.919 7.90978C18.9434 7.95447 18.9677 7.97885 18.984 7.99103C19.0043 8.00322 19.0409 8.01135 19.0937 8.01135C19.1465 8.00729 19.2521 7.98697 19.4024 7.93822L19.4309 7.95447L19.4715 8.08447L19.4553 8.11291C19.3578 8.12916 19.1993 8.17385 18.984 8.24291C18.7118 8.33229 18.4721 8.41354 18.269 8.49479L18.2852 8.50698ZM22.7987 5.08631C22.7784 4.79787 22.8028 4.52975 22.8678 4.2738C22.9328 4.01786 23.0587 3.77817 23.2415 3.55473C23.4244 3.32723 23.6559 3.14848 23.9281 3.01442C24.2003 2.87629 24.5172 2.7991 24.8706 2.77472C25.5288 2.73004 26.065 2.87223 26.4794 3.19723C26.8938 3.5263 27.1253 3.99755 27.166 4.611C27.1944 5.04163 27.1294 5.43976 26.9628 5.79726C26.7963 6.15476 26.5403 6.4432 26.1991 6.65852C25.8538 6.87383 25.4638 6.99977 25.0169 7.02821C24.7041 7.04852 24.4075 7.02009 24.1353 6.93071C23.8631 6.8454 23.6275 6.70321 23.4244 6.51227C23.2253 6.31727 23.0709 6.08976 22.9694 5.82163C22.8678 5.55757 22.8069 5.30975 22.7906 5.08631H22.7987ZM23.3878 4.85475C23.4041 5.08631 23.4609 5.33819 23.5544 5.60226C23.6478 5.86632 23.7778 6.08976 23.9444 6.26852C24.1109 6.45133 24.2937 6.58133 24.5009 6.66258C24.7041 6.74383 24.9356 6.77227 25.1875 6.75602C25.4881 6.73571 25.7481 6.64633 25.9716 6.49602C26.195 6.34164 26.3575 6.12226 26.4591 5.8257C26.5607 5.52913 26.5972 5.20413 26.5728 4.85069C26.5444 4.46474 26.451 4.11943 26.2925 3.8188C26.13 3.51817 25.9188 3.30286 25.6506 3.18098C25.3866 3.0591 25.0941 3.00629 24.7813 3.0266C24.3141 3.0591 23.9525 3.22973 23.7047 3.54255C23.4569 3.8513 23.3512 4.29005 23.3919 4.85881L23.3878 4.85475ZM28.076 2.83566L28.1004 2.81941C28.5757 2.89254 28.8479 2.93316 28.921 2.94129C28.986 2.94941 29.2622 2.97379 29.7498 3.01848L29.7701 3.04285L29.7538 3.18504L29.7294 3.20129C29.5954 3.1891 29.4938 3.18098 29.4207 3.18098C29.3476 3.18098 29.2947 3.1891 29.2582 3.20535C29.2216 3.2216 29.1972 3.27036 29.1769 3.34348C29.1566 3.42067 29.1404 3.5263 29.1201 3.66442L29.0347 4.32256L28.8804 5.58601C28.8397 5.90289 28.8154 6.12226 28.8032 6.2482L28.7544 6.74383L29.3435 6.81696C29.8107 6.87383 30.1032 6.90227 30.221 6.90633C30.3388 6.9104 30.4526 6.89415 30.5663 6.86571C30.5948 6.82102 30.6354 6.7154 30.6963 6.54883C30.7573 6.38227 30.7898 6.28477 30.7938 6.26039L30.8223 6.24008L30.9645 6.25633L30.9807 6.2807C30.9563 6.35383 30.9238 6.50008 30.8791 6.71946C30.8345 6.93884 30.806 7.11352 30.7898 7.24759L30.7654 7.2679C30.3998 7.21103 29.9244 7.15009 29.3313 7.07696L28.4904 6.96727C28.2994 6.9429 28.1004 6.92665 27.9013 6.91852L27.881 6.89415L27.8932 6.80071L27.9216 6.77633C28.0475 6.73165 28.1166 6.69915 28.1329 6.69102C28.145 6.67883 28.1735 6.55696 28.2141 6.32539C28.2547 6.09383 28.2954 5.81351 28.336 5.48851L28.4863 4.26162L28.5513 3.70505C28.5757 3.48973 28.5879 3.34754 28.5879 3.28254C28.5879 3.21754 28.5797 3.17692 28.5635 3.15254C28.5472 3.12817 28.5147 3.10785 28.466 3.08754C28.4172 3.06723 28.2913 3.04285 28.0882 3.01035L28.0679 2.98598L28.0841 2.84379L28.076 2.83566ZM31.9517 5.44788C32.0573 5.17975 32.1913 4.94412 32.3579 4.741C32.5245 4.53787 32.7398 4.37131 33.0039 4.24537C33.2679 4.11943 33.5523 4.05036 33.857 4.04224C34.1617 4.03411 34.4826 4.09099 34.8157 4.22099C35.4333 4.45662 35.8558 4.81006 36.0914 5.28132C36.327 5.75257 36.3351 6.27664 36.1117 6.84946C35.9573 7.25571 35.7258 7.58478 35.4211 7.83666C35.1164 8.0926 34.7629 8.24291 34.3607 8.29573C33.9585 8.34854 33.5482 8.29573 33.1339 8.13729C32.8414 8.0276 32.5854 7.87322 32.3782 7.68228C32.171 7.49134 32.0126 7.26384 31.9151 7.00384C31.8176 6.74383 31.777 6.47164 31.7973 6.18726C31.8176 5.90289 31.8663 5.65507 31.9476 5.44788H31.9517ZM32.5813 5.48444C32.496 5.70382 32.4432 5.95164 32.4148 6.23195C32.3904 6.51227 32.4107 6.76821 32.4838 6.99977C32.557 7.2354 32.6667 7.4304 32.821 7.58884C32.9714 7.74728 33.1664 7.87322 33.402 7.9626C33.6823 8.06822 33.9545 8.10072 34.2226 8.05604C34.4907 8.01135 34.7345 7.87728 34.9498 7.65384C35.1692 7.4304 35.3398 7.15009 35.4698 6.81696C35.612 6.45539 35.6729 6.10195 35.6526 5.7607C35.6364 5.41944 35.5308 5.13913 35.3439 4.91162C35.157 4.68818 34.9133 4.52162 34.6207 4.40787C34.182 4.2413 33.7839 4.24537 33.4264 4.42006C33.0689 4.59475 32.7845 4.94819 32.5813 5.48038V5.48444ZM40.0036 9.91262L39.9589 9.98575L39.9305 10.0101L39.7639 10.0061C39.7233 10.0061 39.6989 10.0101 39.6867 10.0142C39.6746 10.0223 39.638 10.067 39.5771 10.1482C39.5161 10.2295 39.443 10.3351 39.3658 10.4611C39.2764 10.6033 39.187 10.7617 39.1017 10.9364L39.0692 10.9526C38.5127 10.847 37.9967 10.6439 37.5214 10.3514C37.1558 10.1239 36.8714 9.85168 36.6642 9.5348C36.457 9.21792 36.3514 8.86855 36.3473 8.49479C36.3433 8.12104 36.4611 7.74728 36.6926 7.37759C37.0461 6.81696 37.5214 6.48789 38.1186 6.39445C38.7158 6.30508 39.3292 6.45133 39.9508 6.83727C40.4099 7.12165 40.7755 7.45478 41.0436 7.83666V7.87322C40.9461 7.9626 40.7674 8.16979 40.5074 8.49479L40.4749 8.49885L40.3611 8.42979L40.353 8.39729L40.5033 8.13322C40.5521 8.04385 40.5764 7.99103 40.5805 7.97478C40.5846 7.95447 40.5805 7.92603 40.5643 7.88541C40.548 7.84478 40.4992 7.75947 40.4058 7.63353C40.3164 7.50759 40.2189 7.39384 40.1092 7.29228C40.0036 7.19071 39.8777 7.09727 39.7355 7.01196C39.4349 6.82508 39.1302 6.72352 38.8214 6.70321C38.5127 6.68289 38.2242 6.75602 37.9602 6.91852C37.692 7.08102 37.4686 7.30853 37.2858 7.59697C37.0948 7.8976 36.9851 8.21447 36.9486 8.55167C36.912 8.88886 36.9648 9.20167 37.1111 9.49011C37.2573 9.78262 37.4848 10.0264 37.7977 10.2173C37.9317 10.3026 38.082 10.3758 38.2405 10.4367C38.3989 10.4976 38.5411 10.5342 38.663 10.5423C38.7117 10.5017 38.7849 10.4001 38.8824 10.2417L39.053 9.96949C39.1342 9.83949 39.1749 9.75824 39.1789 9.71355C39.183 9.67293 39.1545 9.62418 39.0977 9.57137C39.0408 9.51855 38.9067 9.42105 38.6914 9.28699L38.6833 9.25042L38.7524 9.1448L38.7889 9.13667L38.9352 9.23417C39.187 9.40074 39.3942 9.5348 39.5567 9.63637C39.6502 9.69324 39.7883 9.77449 39.9752 9.87606L39.9874 9.91262H40.0036ZM42.1649 8.57604L42.4208 8.82792C42.5874 8.99448 42.7012 9.10417 42.754 9.15292C42.8027 9.19761 43.0099 9.38043 43.3796 9.70137L43.3837 9.7298L43.2862 9.83543H43.2537C43.1521 9.74606 43.0749 9.68105 43.018 9.63637C42.9571 9.59168 42.9124 9.5673 42.8718 9.55918C42.8312 9.55105 42.7824 9.57543 42.7215 9.62418C42.6605 9.67293 42.5833 9.75012 42.4858 9.85168L42.0268 10.3311L41.1127 11.3061L40.7308 11.7164C40.5846 11.8748 40.4911 11.9845 40.4546 12.0373C40.418 12.0901 40.3977 12.1308 40.3977 12.1592C40.3977 12.1876 40.4099 12.2242 40.4383 12.2689C40.4668 12.3136 40.5521 12.4111 40.6983 12.5533L40.7024 12.5817L40.6049 12.6873H40.5724C40.5643 12.6792 40.4424 12.5614 40.2108 12.3298C40.1133 12.2323 40.0361 12.1592 39.9792 12.1064C39.9346 12.0658 39.7274 11.883 39.3577 11.562V11.5295L39.4552 11.4239L39.4836 11.4279C39.6217 11.5417 39.7152 11.6189 39.768 11.6514C39.8208 11.6839 39.8614 11.7001 39.8858 11.7001C39.9142 11.7001 39.9508 11.6839 40.0036 11.6473C40.0524 11.6108 40.1499 11.5214 40.2921 11.3711L40.7105 10.9283L41.6246 9.95325L42.0065 9.53887C42.1568 9.37636 42.2461 9.27074 42.2868 9.21792C42.3233 9.16511 42.3436 9.12449 42.3436 9.09605C42.3477 9.06761 42.3315 9.03105 42.303 8.98636C42.2746 8.94167 42.1852 8.84823 42.043 8.70198L42.039 8.66948L42.1365 8.56385H42.169L42.1649 8.57604Z" fill="white"/>
<path d="M44.8835 11.7204L44.8876 11.692L45.0054 11.6067L45.0338 11.6108C45.2166 11.887 45.3588 12.0942 45.4644 12.2405C45.5051 12.2933 45.6676 12.5045 45.956 12.8701C46.0495 12.988 46.1145 13.0773 46.1551 13.1301C46.3095 13.3414 46.407 13.5202 46.4557 13.6745C46.5045 13.8289 46.5004 13.9792 46.4476 14.1336C46.3948 14.2839 46.3013 14.4099 46.1632 14.5074C45.9885 14.6333 45.7813 14.6861 45.5457 14.6699C45.306 14.6536 45.0501 14.5277 44.7819 14.2961C44.8916 14.4749 44.9688 14.6292 45.0176 14.7592C45.0663 14.8892 45.0907 15.0152 45.0866 15.1411C45.0826 15.263 45.0501 15.3849 44.981 15.5027C44.916 15.6205 44.8185 15.7261 44.6885 15.8155C44.5869 15.8886 44.4732 15.9496 44.3432 15.9942C44.2132 16.0389 44.071 16.0552 43.9044 16.0471C43.7419 16.0389 43.5794 16.0024 43.4169 15.9374C43.2585 15.8724 43.1163 15.7911 42.9904 15.6896C42.8685 15.5921 42.7385 15.4499 42.6044 15.267C42.576 15.2305 42.4988 15.1167 42.3688 14.9217C42.2225 14.7105 42.1413 14.5967 42.1291 14.5805C42.0519 14.4749 41.9503 14.3489 41.8244 14.2067L41.8285 14.1742L41.9057 14.1173L41.9422 14.1214C42.0478 14.1823 42.1128 14.2148 42.1413 14.2148C42.1697 14.2189 42.316 14.1295 42.5841 13.9508C42.8522 13.772 43.0554 13.6298 43.1935 13.5323L44.0547 12.9108L44.5869 12.5248C44.7048 12.4395 44.7982 12.3705 44.8673 12.3176C44.9363 12.2608 44.9891 12.2201 45.0135 12.1917C45.0419 12.1633 45.0582 12.1389 45.0582 12.1186C45.0623 12.0983 45.0582 12.0698 45.0501 12.0414C45.0419 12.0129 45.0216 11.9683 44.9891 11.9114L44.8713 11.7245L44.8835 11.7204ZM44.2619 13.447C44.3107 13.5283 44.3716 13.6177 44.4447 13.7152C44.6804 14.0361 44.9038 14.2189 45.111 14.2595C45.3182 14.3002 45.5254 14.2514 45.7244 14.1052C45.8423 14.0198 45.9235 13.9264 45.9723 13.8167C46.021 13.707 46.0291 13.5892 45.9966 13.4511C45.9641 13.317 45.8829 13.1626 45.7529 12.9839C45.6473 12.8376 45.5416 12.7198 45.4401 12.6264C45.2898 12.7117 45.0379 12.8823 44.6885 13.1342L44.266 13.4389L44.2619 13.447ZM42.5557 14.6861C42.6166 14.8242 42.6897 14.9583 42.7832 15.0842C42.9457 15.3077 43.1082 15.4539 43.2707 15.5271C43.4332 15.6002 43.6038 15.6205 43.7744 15.588C43.9451 15.5555 44.1076 15.4864 44.2579 15.3767C44.4813 15.2142 44.6154 15.0233 44.6601 14.7958C44.7047 14.5724 44.5707 14.2473 44.2619 13.8289C44.2091 13.7598 44.1441 13.6786 44.0669 13.5852L43.2666 14.162L42.5516 14.682L42.5557 14.6861ZM43.8882 16.9368L43.9004 16.9043L44.0385 16.8474L44.071 16.8636C44.1238 16.9936 44.1644 17.0749 44.1929 17.1074C44.2172 17.1399 44.2579 17.1643 44.3026 17.1805C44.3513 17.1968 44.4894 17.2089 44.7169 17.2211L45.4441 17.2577L47.3982 17.3186C47.7801 17.3268 48.1579 17.3308 48.5398 17.3349L48.6089 17.5096L46.3704 19.7318L46.0738 20.0284C45.9885 20.1137 45.8991 20.2112 45.8016 20.3168C45.7041 20.4224 45.6513 20.4915 45.6391 20.5199C45.6269 20.5524 45.6229 20.5849 45.6229 20.6215C45.6229 20.658 45.6473 20.7352 45.6919 20.849L45.6798 20.8774L45.5416 20.9343L45.5132 20.9221C45.4523 20.7271 45.3913 20.5524 45.3304 20.4021C45.2004 20.1096 45.0744 19.8171 44.9444 19.5246L44.9566 19.4921L45.0948 19.4352L45.1273 19.4474C45.2126 19.6424 45.2694 19.7643 45.306 19.809C45.3385 19.8537 45.3791 19.8659 45.4279 19.8455C45.4685 19.8293 45.5132 19.7968 45.5701 19.744L46.2566 19.0858L45.6269 17.5421L44.8185 17.5258C44.6722 17.5218 44.5747 17.534 44.5138 17.5583C44.4691 17.5746 44.4447 17.6152 44.4447 17.668C44.4407 17.7249 44.4813 17.8508 44.5585 18.0458L44.5463 18.0783L44.4082 18.1352L44.3797 18.123C44.2985 17.8874 44.2254 17.6843 44.1563 17.5136C44.0751 17.3186 43.9897 17.1236 43.8922 16.9286L43.8882 16.9368ZM45.891 17.5502L46.4395 18.899L47.7882 17.5786L45.887 17.5502H45.891ZM45.6351 21.304L45.6595 21.2756L45.7935 21.2552L45.8179 21.2796C45.8382 21.3974 45.8585 21.4868 45.8788 21.5559C45.8991 21.6249 45.9235 21.6656 45.956 21.6818C45.9845 21.6981 46.0291 21.7062 46.0901 21.7021C46.151 21.7021 46.2851 21.6899 46.4963 21.6656C46.7076 21.6412 46.8538 21.6249 46.9473 21.6127L49.267 21.2877C49.3645 21.2756 49.4336 21.2471 49.4782 21.2065C49.5189 21.1659 49.5432 21.1131 49.5473 21.0521C49.5514 20.9912 49.5432 20.8856 49.5229 20.7393L49.5432 20.7149L49.6773 20.6946L49.7057 20.7149C49.7342 20.979 49.7545 21.1496 49.7626 21.2309C49.7911 21.4218 49.8154 21.5802 49.8439 21.7021L48.7835 22.7746L47.2845 24.3468C47.1017 24.5378 46.931 24.7287 46.7726 24.9197L48.9948 24.6109C49.0639 24.6028 49.2101 24.5784 49.4336 24.5378C49.657 24.5012 49.7992 24.4728 49.8561 24.4525C49.917 24.4362 49.9536 24.4118 49.9698 24.3875C49.9861 24.359 49.9982 24.3143 49.9982 24.2453C49.9982 24.1803 49.9942 24.0868 49.9779 23.9772L49.9982 23.9528L50.1323 23.9325L50.1608 23.9528C50.1729 24.1072 50.1973 24.3306 50.2379 24.615C50.2745 24.875 50.307 25.0619 50.3314 25.1797L50.3111 25.2081L50.177 25.2284L50.1486 25.2081C50.1283 25.0822 50.1079 24.9847 50.0876 24.9197C50.0673 24.8547 50.0389 24.814 50.0064 24.8018C49.9739 24.7897 49.9332 24.7815 49.8764 24.7815C49.8195 24.7856 49.6854 24.7937 49.4782 24.8181C49.267 24.8425 49.1167 24.8587 49.0273 24.8709L47.6623 25.0619L46.8701 25.1756C46.6101 25.2162 46.3541 25.2528 46.0941 25.2934C46.1145 25.1959 46.1307 25.0253 46.147 24.7856L46.3582 24.55L47.0204 23.839L49.1817 21.5681L46.9757 21.8728C46.8863 21.8849 46.732 21.9093 46.5045 21.9499C46.277 21.9865 46.1429 22.0149 46.0982 22.0312C46.0495 22.0474 46.021 22.0637 46.0048 22.0799C45.9885 22.0962 45.9763 22.1328 45.9682 22.1856C45.9601 22.2384 45.9682 22.344 45.9885 22.5024L45.9682 22.5309L45.8341 22.5512L45.8057 22.5309C45.8057 22.4293 45.7895 22.2709 45.757 22.0515C45.7163 21.7671 45.6757 21.5234 45.631 21.3081L45.6351 21.304ZM50.3517 26.3172L50.372 26.3416C50.3314 26.6706 50.307 26.8981 50.2989 27.0159L50.2339 28.3606C50.2054 28.7425 50.1486 29.0553 50.0592 29.295C49.9698 29.5347 49.8276 29.7419 49.6367 29.9207C49.4457 30.0994 49.2264 30.2294 48.9826 30.3107C48.7389 30.3919 48.4829 30.4244 48.2148 30.4082C47.9548 30.3919 47.6988 30.3269 47.451 30.2213C47.2032 30.1116 46.9838 29.9694 46.7929 29.7907C46.602 29.6119 46.4516 29.4088 46.346 29.1894C46.2363 28.97 46.1713 28.7506 46.1429 28.5353C46.1145 28.32 46.1104 28.1006 46.1266 27.8813C46.1388 27.7309 46.1632 27.4506 46.2038 27.0362C46.216 26.9022 46.2241 26.8128 46.2282 26.7681C46.2363 26.6341 46.2404 26.4756 46.2404 26.2887L46.2648 26.2684L46.3623 26.2766L46.3907 26.3009C46.4395 26.4187 46.472 26.4837 46.4841 26.5C46.4963 26.5162 46.6629 26.5447 46.9879 26.5772C47.3088 26.6097 47.5567 26.6341 47.7273 26.6462L48.7876 26.7194L49.4457 26.76C49.5879 26.7722 49.7057 26.7762 49.7951 26.7803C49.8845 26.7844 49.9495 26.7803 49.9901 26.7722C50.0307 26.7641 50.0592 26.7559 50.0714 26.7437C50.0876 26.7316 50.1039 26.7112 50.1161 26.6869C50.1282 26.6584 50.1404 26.6137 50.1526 26.5487L50.1851 26.3294L50.2095 26.3091L50.3558 26.3172H50.3517ZM46.5004 27.1175C46.4476 27.3084 46.411 27.5319 46.3948 27.7878C46.3623 28.2347 46.4151 28.5963 46.5451 28.8725C46.6751 29.1488 46.8863 29.3641 47.1707 29.5185C47.4551 29.6688 47.7842 29.7582 48.1539 29.7866C48.7023 29.8232 49.1329 29.7094 49.4539 29.4413C49.7748 29.1732 49.9576 28.7303 50.0023 28.1088C50.0186 27.8528 50.0186 27.605 49.9982 27.3653C49.6814 27.3288 49.3279 27.2963 48.9298 27.2678L48.0198 27.2028L47.1707 27.15C47.0042 27.1378 46.7807 27.1297 46.5004 27.1216V27.1175ZM49.7504 31.8788L49.7626 31.9072C49.6001 32.3541 49.5067 32.6141 49.4823 32.6832C49.462 32.7441 49.3848 33.0082 49.2467 33.4754L49.2182 33.4916L49.0801 33.4469L49.0679 33.4185C49.1045 33.2926 49.1329 33.191 49.1492 33.1219C49.1654 33.0529 49.1654 32.996 49.1573 32.9594C49.1451 32.9229 49.1045 32.8863 49.0354 32.8538C48.9623 32.8213 48.8607 32.7807 48.7307 32.7401L48.097 32.5288L47.2195 32.2444C46.931 32.151 46.7157 32.0901 46.5776 32.0576C46.4395 32.0251 46.3176 32.0169 46.212 32.0251C46.1063 32.0332 46.0088 32.0697 45.9113 32.1266C45.8179 32.1835 45.7245 32.281 45.6351 32.4191C45.5416 32.5532 45.4685 32.7198 45.4035 32.9066C45.3385 33.1057 45.3019 33.3048 45.3019 33.4957C45.3019 33.6866 45.3385 33.8451 45.4157 33.971C45.4929 34.097 45.6148 34.2026 45.7773 34.2879C45.9438 34.3732 46.1795 34.4626 46.4882 34.5642L47.3373 34.8404C47.4795 34.8851 47.6785 34.9501 47.9304 35.0232C48.1823 35.1004 48.3326 35.1329 48.3732 35.1288C48.4179 35.1248 48.4545 35.1004 48.491 35.0598C48.5235 35.0192 48.5804 34.8932 48.6535 34.682L48.682 34.6657L48.812 34.7063L48.8282 34.7348C48.7226 34.9988 48.6454 35.2142 48.5926 35.3767C48.5479 35.5148 48.4829 35.7342 48.4057 36.0307L48.3732 36.047L48.2432 36.0064L48.227 35.9739C48.2798 35.8032 48.3082 35.6854 48.3164 35.6326C48.3245 35.5798 48.3204 35.5351 48.3082 35.5107C48.296 35.4823 48.2676 35.4579 48.231 35.4335C48.1904 35.4092 48.0726 35.3645 47.8735 35.2954L47.256 35.0882L46.4191 34.8201C46.082 34.7104 45.826 34.6129 45.6391 34.5276C45.4563 34.4382 45.3141 34.3326 45.2207 34.2026C45.1232 34.0726 45.0541 33.9345 45.0094 33.7882C44.9648 33.6379 44.9526 33.4632 44.9688 33.2601C44.9851 33.0569 45.0298 32.8498 45.0948 32.6466C45.1801 32.3907 45.2816 32.1754 45.3994 31.9966C45.5213 31.8179 45.6473 31.6879 45.7773 31.6066C45.9073 31.5254 46.0332 31.4726 46.1551 31.4604C46.2729 31.4441 46.407 31.4522 46.5532 31.4807C46.6995 31.5132 46.9148 31.5741 47.2032 31.6676L48.2635 32.0088L48.8039 32.1754C49.0151 32.2404 49.1492 32.281 49.2142 32.2932C49.2792 32.3054 49.3239 32.3054 49.3482 32.2932C49.3767 32.281 49.4011 32.2566 49.4295 32.2079C49.4579 32.1632 49.5067 32.0454 49.5798 31.8544L49.6082 31.8382L49.7464 31.8829L49.7504 31.8788ZM44.3391 35.0598L44.3757 35.0517L44.4894 35.1207L44.4935 35.1532C44.4326 35.2548 44.3879 35.336 44.3594 35.401C44.331 35.466 44.3229 35.5148 44.3351 35.5473C44.3472 35.5798 44.3757 35.6123 44.4244 35.6488C44.4732 35.6854 44.5829 35.7626 44.7576 35.8804C44.9323 35.9982 45.0582 36.0795 45.1354 36.1282L47.122 37.3592C47.2073 37.412 47.2763 37.4364 47.3373 37.4282C47.3942 37.4242 47.447 37.3998 47.4917 37.3511C47.5363 37.3064 47.5973 37.2211 47.6785 37.0951L47.711 37.087L47.8288 37.1601L47.837 37.1926C47.6867 37.412 47.5892 37.5542 47.5445 37.6273C47.4388 37.7939 47.3576 37.932 47.3007 38.0417L45.7895 38.1879L43.62 38.4358C43.356 38.4642 43.1041 38.5008 42.8563 38.5495L44.7616 39.7276C44.8226 39.7642 44.9485 39.8414 45.1435 39.9552C45.3385 40.0689 45.4644 40.138 45.5213 40.1623C45.5782 40.1867 45.6229 40.1948 45.6513 40.1867C45.6838 40.1786 45.7204 40.1461 45.7651 40.0973C45.8098 40.0486 45.8626 39.9755 45.9235 39.878L45.956 39.8698L46.0698 39.9389L46.0779 39.9714C45.9885 40.0973 45.8626 40.2842 45.7082 40.528C45.566 40.7514 45.4685 40.9139 45.4157 41.0195L45.3791 41.0277L45.2654 40.9586L45.2573 40.9261C45.3223 40.8164 45.371 40.7311 45.3954 40.6661C45.4238 40.6011 45.4279 40.5523 45.4116 40.5239C45.3954 40.4955 45.3669 40.463 45.3223 40.4264C45.2776 40.3939 45.1679 40.3167 44.9932 40.1989C44.8185 40.0811 44.6926 39.9998 44.6113 39.9511L42.7629 38.8095C42.5394 38.6754 42.316 38.5414 42.0885 38.4033C42.1657 38.3383 42.2916 38.2204 42.4582 38.0458L42.775 38.0011L43.7419 37.8792L46.8701 37.5176L44.981 36.3476C44.9038 36.2989 44.7698 36.2217 44.5707 36.1079C44.3716 35.9942 44.2538 35.9292 44.2051 35.9089C44.1604 35.8926 44.1238 35.8845 44.0994 35.8885C44.0751 35.8926 44.0426 35.9129 44.0019 35.9454C43.9613 35.982 43.8963 36.0673 43.811 36.2014L43.7785 36.2095L43.6607 36.1364L43.6525 36.1039C43.7176 36.0267 43.811 35.8926 43.9288 35.7057C44.0832 35.462 44.2091 35.2467 44.3147 35.0557L44.3391 35.0598ZM39.7606 43.1605L39.6997 43.0996L39.6834 43.0671L39.7281 42.9086C39.7363 42.868 39.7403 42.8436 39.7363 42.8314C39.7322 42.8192 39.6956 42.7746 39.6306 42.6933C39.5656 42.6121 39.4803 42.5186 39.3747 42.413C39.2569 42.2911 39.1228 42.1692 38.9725 42.0433L38.9644 42.0108C39.2041 41.503 39.525 41.052 39.9272 40.6702C40.2359 40.3736 40.5731 40.1664 40.9347 40.0405C41.2963 39.9186 41.6619 39.9023 42.0275 39.9877C42.3972 40.073 42.7304 40.2761 43.035 40.5889C43.4982 41.0642 43.7054 41.6045 43.6525 42.1977C43.5957 42.7949 43.3032 43.3474 42.775 43.8552C42.385 44.229 41.9707 44.4971 41.5319 44.6636L41.4953 44.6555C41.4303 44.5377 41.2719 44.3183 41.016 43.9893L41.02 43.9568L41.1175 43.8633H41.15L41.3735 44.0705C41.4466 44.1396 41.4913 44.1761 41.5116 44.1843C41.5278 44.1924 41.5603 44.1924 41.605 44.1883C41.6497 44.1843 41.7432 44.1558 41.8894 44.0989C42.0357 44.0421 42.1697 43.973 42.2916 43.8958C42.4175 43.8186 42.5354 43.7211 42.6572 43.6033C42.9132 43.3596 43.0879 43.0914 43.1813 42.7989C43.2747 42.5064 43.2747 42.2099 43.1772 41.9174C43.0797 41.6208 42.9132 41.3486 42.6735 41.1049C42.4257 40.8489 42.1413 40.6661 41.8203 40.5483C41.4994 40.4305 41.1785 40.4061 40.8616 40.4792C40.5406 40.5483 40.2481 40.7108 39.9841 40.9627C39.8703 41.0724 39.7606 41.1983 39.6631 41.3364C39.5656 41.4745 39.4966 41.6005 39.46 41.7183C39.4925 41.7752 39.5697 41.8686 39.7038 42.0027L39.9272 42.2342C40.0328 42.3439 40.1059 42.4049 40.1466 42.4171C40.1872 42.4292 40.24 42.4171 40.305 42.3764C40.37 42.3358 40.4959 42.2261 40.6828 42.0555H40.7194L40.8088 42.1489V42.1855L40.6788 42.3033C40.4513 42.5064 40.2725 42.673 40.1344 42.803C40.0572 42.8802 39.9434 42.9939 39.7972 43.1483L39.7606 43.1524V43.1605Z" fill="white"/>
<path fill-rule="evenodd" clip-rule="evenodd" d="M14.4669 44.5662C14.9097 44.5662 15.2712 44.9196 15.2712 45.3543C15.2712 45.789 14.9097 46.1424 14.4669 46.1424C14.024 46.1424 13.6625 45.789 13.6625 45.3543C13.6625 44.9196 14.024 44.5662 14.4669 44.5662Z" fill="white"/>
<path fill-rule="evenodd" clip-rule="evenodd" d="M37.9886 44.5662C38.4314 44.5662 38.793 44.9196 38.793 45.3543C38.793 45.789 38.4355 46.1424 37.9886 46.1424C37.5458 46.1424 37.1842 45.789 37.1842 45.3543C37.1842 44.9196 37.5458 44.5662 37.9886 44.5662Z" fill="white"/>
<path fill-rule="evenodd" clip-rule="evenodd" d="M26.5006 9.3479C35.8647 9.3479 43.4617 16.9449 43.4617 26.309C43.4617 35.6732 35.8647 43.2702 26.5006 43.2702C17.1323 43.2702 9.53941 35.6732 9.53941 26.309C9.53941 16.9408 17.1364 9.3479 26.5006 9.3479ZM31.1355 14.0849C31.948 14.0849 32.6264 14.4992 33.114 15.0396C33.6177 15.5596 33.8818 16.4696 33.699 17.2496C33.1586 16.7702 32.4518 16.7336 31.7814 16.9652L32.0739 17.3796L32.6061 17.0261C32.728 17.2333 32.923 17.343 32.8824 17.6233C33.2643 17.473 33.6868 17.8305 33.4918 18.1068C33.9265 17.9687 34.0362 18.3302 33.9915 18.4724C34.2312 18.4562 34.4505 18.6471 34.3896 18.9112C34.6699 18.8543 34.7471 19.098 34.7024 19.3702C34.4343 20.0202 34.1093 20.5646 33.1993 20.7962L33.699 21.0359C33.4146 21.7874 32.9068 22.4334 32.338 22.6446C33.4918 23.7131 34.1905 25.0456 34.2393 27.2475C34.2555 28.0397 34.024 29.5185 33.2602 30.1035C34.158 30.3472 35.064 31.2816 35.0355 32.5207C35.0274 32.9148 34.9218 33.3291 34.7268 33.7963C34.2027 35.0232 32.8783 35.1248 31.8343 34.9379C30.7171 34.747 29.8233 34.1376 28.7467 34.5845C28.3486 34.812 27.8692 35.2385 27.3289 34.9257C26.8495 34.5967 26.7358 34.3895 26.5408 33.8857C26.3417 34.3732 26.2076 34.552 25.7729 34.8729C25.2692 35.2548 24.6192 34.8932 24.3185 34.5845C23.1526 33.7395 21.9054 34.9257 20.7841 34.9948C18.7041 35.2507 17.9647 33.9426 17.9769 32.6101C17.981 31.4482 18.5538 30.2579 19.7522 30.2457C19.3947 29.8354 18.9763 29.2544 18.8422 28.4013C18.4563 26.0816 18.7082 24.6312 20.841 22.5146C20.3819 22.3156 19.801 21.9093 19.3744 20.9749C20.1179 20.5321 20.2194 20.3006 20.2316 20.2477C19.545 19.6384 19.2079 18.6877 19.4191 17.7452C19.48 17.4893 19.5938 17.3308 19.7725 17.1683C19.8985 17.1115 20.1463 17.0424 20.2316 17.2293C20.4266 16.9936 20.7719 16.9855 20.9222 17.213C21.1132 16.9815 21.4138 17.0058 21.6007 17.2618C21.686 17.0058 22.2588 16.9449 22.267 17.5543C22.4051 17.2211 22.8885 17.1277 23.1526 17.1602C23.0998 17.2943 23.0266 17.3836 23.0348 17.603C23.0551 17.993 23.0307 18.3587 23.051 18.7202H23.3517C23.3923 17.5787 23.7254 16.6199 25.2773 15.9252C25.6836 15.7464 26.1264 15.6733 26.5854 15.3849C27.0283 15.653 27.4711 15.718 27.8733 15.9252C29.5755 16.8149 29.7624 17.4933 29.803 18.704L30.843 18.8055C30.7861 18.4724 30.9202 18.3587 31.3142 18.0215L29.6445 16.0105L30.3839 15.4011L31.0258 16.0593C31.2899 15.7627 31.4686 15.1208 31.3427 14.678C31.3142 14.5033 31.3264 14.3083 31.1436 14.093L31.1355 14.0849ZM23.4492 25.9759C23.6401 25.9759 23.7985 25.8216 23.7985 25.6347C23.7985 25.4478 23.6401 25.2894 23.4492 25.2894C23.2582 25.2894 23.0957 25.4478 23.0957 25.6347C23.0957 25.8216 23.2582 25.9759 23.4492 25.9759ZM25.6023 19.9918C25.8217 20.0406 25.9639 20.3656 25.9436 20.5646C25.5617 20.589 25.131 20.589 24.871 20.4631C24.7207 20.3574 24.607 20.1218 24.611 19.9593C24.871 19.9593 25.4479 19.9471 25.6023 19.9918ZM27.5767 19.9918C27.3573 20.0406 27.207 20.3656 27.2314 20.5646C27.6092 20.589 28.0439 20.589 28.3039 20.4631C28.4542 20.3574 28.568 20.1218 28.5598 19.9593C28.3039 19.9593 27.723 19.9471 27.5767 19.9918ZM29.4617 25.1187C29.3805 25.3016 28.8686 25.6956 28.6817 25.8256C28.4176 25.7769 28.2958 25.7647 28.0723 25.6347C28.4014 25.4925 28.6817 25.1919 28.828 24.94C28.9864 25.0497 29.2464 25.0944 29.4617 25.1187ZM28.5761 24.8344C28.3445 25.1431 28.0276 25.3584 27.7717 25.5047C27.1298 25.1837 27.463 23.8472 27.4792 23.6278C27.8123 24.225 28.247 24.6109 28.5761 24.8344ZM28.117 22.8762C28.4745 23.5993 28.8483 24.2615 29.3195 24.8912C28.6492 24.8547 27.8408 23.7984 27.662 23.2987C27.6173 23.1606 27.8976 22.864 28.117 22.8762ZM25.1229 23.2378L24.477 23.9203L24.1398 23.6968L24.7532 22.6528C24.9279 22.734 25.127 22.9371 25.127 23.2337L25.1229 23.2378ZM33.8371 26.5041C33.9468 28.4866 33.5486 29.9288 31.7164 30.6397C30.8999 30.9526 29.8517 30.331 29.608 29.6688C29.7177 29.6485 29.9249 29.6647 30.0264 29.5063C30.2864 29.7988 30.5749 29.811 30.8796 29.5469C31.3061 29.8557 31.6311 29.6972 31.7652 29.5469C31.9521 29.7094 32.2811 29.8029 32.5452 29.6404C32.8702 29.5104 33.0896 28.8644 32.6833 28.5638C32.9555 28.381 32.8702 27.9219 32.9515 27.6985L31.2208 27.6903C31.2208 26.5244 31.3183 25.1187 30.8917 24.619L30.8064 27.406C30.6236 26.5406 29.8436 26.0612 29.1408 25.9231C29.807 25.5372 30.9689 23.4206 30.9486 22.2668C32.9433 23.2093 33.7477 24.9278 33.8371 26.5163V26.5041ZM30.5667 22.1693C30.6927 23.1809 29.8924 24.4647 29.612 24.9278C29.4983 24.81 29.3439 24.5703 29.2423 24.3469C29.6852 23.7862 30.0508 22.8721 30.1117 22.0515L30.5667 22.1734V22.1693ZM29.2139 21.8606L29.7055 21.9743C29.7055 22.5715 29.413 23.6318 29.0636 24.0828C28.8767 23.6725 28.4908 23.0915 28.3811 22.6081L29.2058 21.8565H29.2139V21.8606ZM23.896 21.8037C24.1195 22.0921 24.2576 22.1653 24.4729 22.3237L23.6848 23.7822L24.5217 24.2697L25.1757 23.6237C25.192 25.6225 25.3748 26.0816 25.8867 26.4838C24.7857 26.9347 23.6888 27.8569 22.8926 28.7953L22.921 26.7153C22.7016 26.6381 22.3198 26.7316 22.206 26.9184L22.2466 24.554C21.7673 25.2244 21.8688 26.2522 21.8404 26.7681L20.5566 26.7722V27.475C20.3697 27.5319 20.1747 27.471 20.0407 27.6619C19.7847 27.9625 19.8782 28.2428 20.1016 28.3607C19.7279 28.4866 19.8782 29.0107 20.0813 29.0635C19.7685 29.096 19.8985 29.4494 19.9594 29.6119C19.2444 28.7263 19.1672 27.5725 19.1713 26.3781C19.3135 24.9928 20.1626 23.5465 21.5154 22.6203C22.336 22.149 22.9779 21.9418 23.9042 21.8078L23.896 21.8037ZM31.1964 19.6099C31.7693 20.2437 32.5655 20.8368 33.1221 21.0603C33.5446 21.3893 32.7036 22.0109 31.9643 22.2871C31.0786 21.8443 30.5627 21.6412 29.5633 21.3609C29.872 20.7677 29.9167 19.9877 29.8436 19.2077C30.3636 19.1996 30.8186 19.1874 31.1964 19.6059V19.6099ZM23.2988 19.2402C23.372 19.8699 23.2217 20.6296 23.6482 21.3649C22.6691 21.6249 21.8932 21.7834 21.2798 22.2709C20.7963 22.2709 19.5491 21.2024 19.9229 21.0034C20.5647 20.7109 21.1863 19.9309 21.8241 19.5937C22.462 19.2524 22.791 19.2321 23.2988 19.2402ZM26.5773 18.5618L26.9429 18.9234L26.5773 19.293L26.2036 18.9234L26.5773 18.5618ZM34.3124 19.5368C34.1946 19.7602 34.0727 19.8212 33.8452 19.9309C33.6258 20.0162 33.4593 19.8049 33.5974 19.6831L34.1621 19.2362C34.3612 19.098 34.4993 19.2402 34.3124 19.5368ZM33.9996 19.0899L33.4268 19.5287C33.2358 19.683 33.0043 19.423 33.1871 19.2646L33.8005 18.7893C33.9996 18.6837 34.1946 18.899 33.9996 19.094V19.0899ZM33.1708 18.2124L32.598 18.6512C32.403 18.8096 32.1714 18.5455 32.3583 18.3871L32.9718 17.9158C33.1708 17.8062 33.3658 18.0255 33.1708 18.2124ZM33.5974 18.6512L33.0246 19.094C32.8296 19.2443 32.598 18.9843 32.7849 18.8259L33.3983 18.3546C33.5974 18.249 33.7924 18.4643 33.5974 18.6512ZM31.9764 18.5496C31.9236 18.7852 32.0861 19.0615 32.4233 18.9599C32.2568 19.3174 32.7118 19.5002 32.8702 19.4271C32.7768 19.6668 33.0368 19.9959 33.3008 19.8456C33.2521 20.134 33.4674 20.1137 33.6624 20.1624C33.5121 20.3249 32.9758 20.4631 32.7524 20.3981C32.2568 20.1543 31.8749 19.553 31.4971 19.2362C31.363 19.0371 31.3224 18.7852 31.4117 18.5658C31.7855 18.2205 32.0699 17.8793 32.4558 17.6315C32.6021 18.0946 32.0618 18.1637 31.9764 18.5455V18.5496ZM22.5351 17.6437L22.6082 18.7162C21.9541 18.7162 20.9791 19.553 20.5526 19.939C20.0001 19.6709 19.7604 18.9193 19.7238 18.5374C19.8416 18.704 19.8904 18.6227 19.9676 18.643C20.1382 18.5862 20.1869 18.5455 20.2601 18.3952C20.3047 18.5455 20.3129 18.6227 20.5485 18.643C20.6744 18.5983 20.8491 18.5983 20.8857 18.4115C20.9344 18.5902 20.9629 18.6227 21.1741 18.6308C21.3123 18.6146 21.4423 18.574 21.4869 18.3749C21.556 18.5374 21.6373 18.6105 21.8688 18.6308C22.0029 18.5943 22.1491 18.4968 22.1776 18.3505C22.2345 18.0337 22.2507 17.8183 22.5148 17.6274L22.5229 17.6355L22.5351 17.6437ZM22.0354 17.6233L22.0313 18.2043C21.9744 18.4927 21.6941 18.5049 21.621 18.1799V17.6274C21.6373 17.3186 21.9988 17.3471 22.0394 17.6233H22.0354ZM21.4098 17.6233V18.2043C21.3448 18.4927 21.0726 18.5049 20.9913 18.1799V17.6274C21.0116 17.3186 21.3732 17.3471 21.4098 17.6233ZM20.776 17.6233L20.7719 18.2043C20.7069 18.4927 20.4347 18.5049 20.3535 18.1799V17.6274C20.3738 17.3186 20.7354 17.3471 20.776 17.6233ZM20.1179 17.6152V18.2612C20.0529 18.4846 19.8091 18.444 19.74 18.2327C19.7157 17.928 19.7482 17.9402 19.801 17.668C19.8497 17.4161 20.0407 17.3511 20.1179 17.6152ZM27.853 16.3964C28.4989 17.0993 28.5151 17.668 28.5111 18.7162H29.3277C29.2627 17.3593 29.1042 16.9815 27.853 16.3964ZM25.3545 16.3964C24.7045 17.0993 24.6882 17.668 24.6964 18.7162H23.8757C23.9407 17.3593 24.0951 16.9815 25.3504 16.3964H25.3545ZM26.8495 15.9821C26.8495 17.2658 26.8048 18.0458 27.0567 18.4765C27.1786 18.6187 27.2923 18.6674 27.4914 18.7162H28.0114C27.983 16.9733 27.6539 16.4777 26.8495 15.9821ZM26.3539 15.9821C26.3539 17.2658 26.3986 18.0458 26.1548 18.4765C26.0289 18.6187 25.9192 18.6674 25.7201 18.7162H25.2001C25.2285 16.9733 25.5576 16.4777 26.3579 15.9821H26.3539ZM33.4227 16.6483C33.0205 16.4168 32.0455 16.2421 31.2167 16.8515L31.7693 17.5827L31.5336 17.798L30.1117 16.0593L30.3555 15.8683L30.9771 16.563C31.6433 16.0227 31.8058 15.4214 31.7368 14.6577C32.3136 14.8324 33.2805 15.3442 33.4186 16.6483H33.4227ZM26.5611 37.8264C26.1345 37.3226 25.7729 37.1561 24.6923 37.0504C23.6563 36.9489 21.7307 37.0017 20.4672 36.9651C19.5613 36.9367 18.9722 36.632 18.8747 35.6895C19.5654 36.2298 21.1213 35.9536 22.6285 35.9495C24.3551 35.9414 26.1182 35.8114 26.5611 36.6807C26.9958 35.8114 28.763 35.9414 30.4895 35.9495C32.0008 35.9536 33.5568 36.2298 34.2474 35.6895C34.1499 36.632 33.5568 36.9367 32.6508 36.9651C31.3874 37.0017 29.4577 36.9489 28.4258 37.0504C27.3492 37.1561 26.9836 37.3186 26.5611 37.8264ZM26.5611 38.5333C25.9639 36.8676 21.6413 37.8548 20.3129 37.5258C18.4319 37.0586 18.6228 35.9576 18.3628 34.8485C19.5247 36.047 21.2594 35.4254 23.0104 35.4254C24.2982 35.4254 25.972 35.2345 26.5651 35.9454C27.1542 35.2345 28.8239 35.4254 30.1158 35.4254C31.8668 35.4254 33.3577 36.0511 34.6577 34.8485C34.5399 35.856 34.6496 37.2739 32.8093 37.5258C31.4524 37.7086 27.1583 36.8676 26.5651 38.5333H26.5611ZM27.2639 31.1394C27.2151 31.306 27.1989 31.4888 27.3654 31.6269C27.1339 31.8544 27.1989 32.1673 27.3858 32.3988C27.1664 32.606 27.1786 33.0285 27.3898 33.2113C27.1786 33.3941 27.1542 33.7476 27.4142 33.9954C27.2964 34.1051 27.2761 34.2513 27.2761 34.3976C26.8536 33.8776 26.8251 33.0245 26.8251 32.736C26.8251 32.5532 26.8089 31.5904 27.2598 31.1394H27.2639ZM25.777 31.1435C25.8257 31.3141 25.8339 31.4888 25.6754 31.6229C25.9029 31.8504 25.8379 32.1632 25.6511 32.3948C25.8704 32.602 25.8623 33.0245 25.647 33.2073C25.8623 33.3901 25.8867 33.7435 25.6267 33.9913C25.7445 34.101 25.8014 34.2432 25.8014 34.3895C26.2239 33.8695 26.2117 33.0245 26.2117 32.732C26.2117 32.5532 26.2279 31.5944 25.777 31.1394V31.1435ZM32.273 29.425C32.4639 29.425 32.6224 29.2707 32.6224 29.0838C32.6224 28.8969 32.4639 28.7385 32.273 28.7385C32.0821 28.7385 31.9196 28.8969 31.9196 29.0838C31.9196 29.2707 32.0821 29.425 32.273 29.425ZM31.3671 29.425C31.558 29.425 31.7205 29.2707 31.7205 29.0838C31.7205 28.8969 31.558 28.7385 31.3671 28.7385C31.1761 28.7385 31.0177 28.8969 31.0177 29.0838C31.0177 29.2707 31.1761 29.425 31.3671 29.425ZM30.4692 29.425C30.6602 29.425 30.8186 29.2707 30.8186 29.0838C30.8186 28.8969 30.6602 28.7385 30.4692 28.7385C30.2783 28.7385 30.1158 28.8969 30.1158 29.0838C30.1158 29.2707 30.2783 29.425 30.4692 29.425ZM29.5389 29.425C29.7299 29.425 29.8924 29.2707 29.8924 29.0838C29.8924 28.8969 29.7299 28.7385 29.5389 28.7385C29.348 28.7385 29.1895 28.8969 29.1895 29.0838C29.1895 29.2707 29.348 29.425 29.5389 29.425ZM26.5814 29.6444C26.7723 29.6444 26.9348 29.49 26.9348 29.3032C26.9348 29.1163 26.7723 28.9578 26.5814 28.9578C26.3904 28.9578 26.232 29.1163 26.232 29.3032C26.232 29.49 26.3904 29.6444 26.5814 29.6444ZM25.2245 31.5213C25.4154 31.5213 25.5779 31.3669 25.5779 31.1801C25.5779 30.9932 25.4154 30.8388 25.2245 30.8388C25.0335 30.8388 24.8832 30.9932 24.8832 31.1801C24.8832 31.3669 25.0335 31.5213 25.2245 31.5213ZM27.8773 31.5294C28.0683 31.5294 28.2267 31.3751 28.2267 31.1882C28.2267 31.0013 28.0683 30.8469 27.8773 30.8469C27.6864 30.8469 27.528 31.0013 27.528 31.1882C27.528 31.3751 27.6864 31.5294 27.8773 31.5294ZM25.2245 32.3013C25.4154 32.3013 25.5779 32.151 25.5779 31.9641C25.5779 31.7773 25.4154 31.6229 25.2245 31.6229C25.0335 31.6229 24.8832 31.7773 24.8832 31.9641C24.8832 32.151 25.0335 32.3013 25.2245 32.3013ZM27.8773 32.3298C28.0683 32.3298 28.2267 32.1754 28.2267 31.9885C28.2267 31.8016 28.0683 31.6473 27.8773 31.6473C27.6864 31.6473 27.528 31.8016 27.528 31.9885C27.528 32.1754 27.6864 32.3298 27.8773 32.3298ZM25.2245 33.1423C25.4154 33.1423 25.5779 32.9838 25.5779 32.797C25.5779 32.6101 25.4154 32.4598 25.2245 32.4598C25.0335 32.4598 24.8832 32.6101 24.8832 32.797C24.8832 32.9838 25.0335 33.1423 25.2245 33.1423ZM27.8773 33.126C28.0683 33.126 28.2267 32.9716 28.2267 32.7848C28.2267 32.5979 28.0683 32.4435 27.8773 32.4435C27.6864 32.4435 27.528 32.5979 27.528 32.7848C27.528 32.9716 27.6864 33.126 27.8773 33.126ZM25.2245 33.9548C25.4154 33.9548 25.5779 33.8004 25.5779 33.6135C25.5779 33.4266 25.4154 33.2723 25.2245 33.2723C25.0335 33.2723 24.8832 33.4266 24.8832 33.6135C24.8832 33.8004 25.0335 33.9548 25.2245 33.9548ZM27.8773 33.9345C28.0683 33.9345 28.2267 33.7801 28.2267 33.5932C28.2267 33.4063 28.0683 33.252 27.8773 33.252C27.6864 33.252 27.528 33.4063 27.528 33.5932C27.528 33.7801 27.6864 33.9345 27.8773 33.9345ZM25.2285 34.6942C25.3951 34.6942 25.5332 34.556 25.5332 34.3895C25.5332 34.227 25.3951 34.0848 25.2285 34.0848C25.062 34.0848 24.9198 34.2229 24.9198 34.3895C24.9198 34.552 25.062 34.6942 25.2285 34.6942ZM27.8692 34.6739C28.0398 34.6739 28.178 34.5398 28.178 34.3692C28.178 34.1985 28.0398 34.0726 27.8692 34.0726C27.6986 34.0726 27.5605 34.2026 27.5605 34.3692C27.5605 34.5398 27.6986 34.6739 27.8692 34.6739ZM23.1241 16.9774C23.3151 16.9774 23.4776 16.823 23.4776 16.6361C23.4776 16.4493 23.3151 16.2908 23.1241 16.2908C22.9332 16.2908 22.7748 16.4493 22.7748 16.6361C22.7748 16.823 22.9332 16.9774 23.1241 16.9774ZM23.0795 16.1039C23.2704 16.1039 23.4288 15.9455 23.4288 15.7586C23.4288 15.5718 23.2704 15.4174 23.0795 15.4174C22.8885 15.4174 22.726 15.5718 22.726 15.7586C22.726 15.9455 22.8885 16.1039 23.0795 16.1039ZM22.6204 15.2711C22.8113 15.2711 22.9738 15.1167 22.9738 14.9299C22.9738 14.743 22.8113 14.5846 22.6204 14.5846C22.4295 14.5846 22.271 14.743 22.271 14.9299C22.271 15.1167 22.4295 15.2711 22.6204 15.2711ZM21.8038 14.8852C21.9948 14.8852 22.1573 14.7267 22.1573 14.5399C22.1573 14.353 21.9948 14.1986 21.8038 14.1986C21.6129 14.1986 21.4544 14.353 21.4544 14.5399C21.4544 14.7267 21.6129 14.8852 21.8038 14.8852ZM20.7882 14.8446C20.9791 14.8446 21.1416 14.6902 21.1416 14.5033C21.1416 14.3164 20.9791 14.158 20.7882 14.158C20.5972 14.158 20.4388 14.3164 20.4388 14.5033C20.4388 14.6902 20.5972 14.8446 20.7882 14.8446ZM19.9594 15.3686C20.1504 15.3686 20.3088 15.2102 20.3088 15.0233C20.3088 14.8364 20.1504 14.6821 19.9594 14.6821C19.7685 14.6821 19.606 14.8364 19.606 15.0233C19.606 15.2102 19.7685 15.3686 19.9594 15.3686ZM19.4394 16.1486C19.6304 16.1486 19.7929 15.9902 19.7929 15.8033C19.7929 15.6164 19.6304 15.4621 19.4394 15.4621C19.2485 15.4621 19.09 15.6164 19.09 15.8033C19.09 15.9902 19.2485 16.1486 19.4394 16.1486ZM19.4922 17.0586C19.6832 17.0586 19.8416 16.9043 19.8416 16.7174C19.8416 16.5305 19.6832 16.3721 19.4922 16.3721C19.3013 16.3721 19.1388 16.5305 19.1388 16.7174C19.1388 16.9043 19.3013 17.0586 19.4922 17.0586ZM21.5276 30.7332V31.5335C21.1741 31.2451 21.1254 31.1272 21.0563 30.7454L21.5276 30.7372V30.7332ZM32.9474 30.3879C34.9909 30.6397 35.194 34.0645 32.9718 34.552C31.4524 34.7835 30.0386 33.2845 28.4542 34.2717C28.4867 34.1701 28.3689 34.0442 28.2836 34.0035C28.5436 33.7598 28.5517 33.4104 28.3161 33.1951C28.5558 33.0285 28.5802 32.5735 28.3323 32.3582C28.5761 32.151 28.5517 31.7651 28.3486 31.5863C28.4177 31.5376 28.5192 31.501 28.5436 31.3466C28.9783 31.8869 30.1727 31.8544 31.2899 31.0826C32.0455 31.0622 32.659 30.7413 32.9515 30.3879H32.9474ZM20.5851 30.6844C20.7354 31.3182 21.2757 31.8626 21.881 32.0576L21.8851 31.1719C22.5716 31.5741 23.7579 31.8341 24.5501 31.3344C24.5582 31.4441 24.6476 31.5254 24.7614 31.5823C24.4851 31.8138 24.5298 32.1307 24.7614 32.3582C24.5176 32.5248 24.5379 33.0001 24.7776 33.1666C24.5379 33.3657 24.4485 33.7842 24.806 34.0279C24.7045 34.0523 24.607 34.1335 24.611 34.3204C22.9291 32.801 21.1051 35.0842 19.3297 34.361C17.7453 33.4795 18.4482 29.876 20.5851 30.6885V30.6844ZM21.4179 29.8232C21.8648 29.7704 21.7551 30.3269 21.4382 30.2741H20.5444C20.191 30.3107 20.0488 29.8029 20.5119 29.8232H21.4179ZM21.4504 29.1447C21.8973 29.096 21.7876 29.6566 21.4707 29.6038H20.5769C20.2235 29.6363 20.0813 29.1325 20.5404 29.1447H21.4504ZM21.4504 28.4785C21.8973 28.4297 21.7876 28.9903 21.4707 28.9375H20.5769C20.2235 28.97 20.0813 28.4663 20.5404 28.4785H21.4504ZM21.4504 27.8C21.8973 27.7513 21.7876 28.3038 21.4707 28.2591H20.5769C20.2235 28.2916 20.0813 27.7878 20.5404 27.8H21.4504ZM32.4071 28.1291C32.4477 28.19 32.3908 28.3322 32.3421 28.3972C32.1064 28.3728 31.9196 28.381 31.7977 28.6125C31.6839 28.3972 31.0908 28.3728 30.9039 28.6125C30.6399 28.3647 30.2174 28.3363 30.0305 28.6572C29.9208 28.5272 29.7867 28.4297 29.6202 28.4257C29.5227 28.3728 29.5023 28.2225 29.4983 28.1291H32.4071ZM27.3004 27.0281C27.6783 27.2313 28.9458 27.3938 29.0514 27.8244L29.1245 28.4582C28.9905 28.5882 28.8483 28.8157 28.8483 29.0635C28.9742 29.9125 29.7745 30.6479 30.3961 30.9688C30.0102 31.2247 29.2342 31.436 28.7792 30.9688C28.4745 30.5585 27.7595 30.3797 27.3979 30.6357C26.8008 31.0501 26.7114 31.1557 26.5408 31.7488C26.4189 31.3222 26.1873 30.7088 25.712 30.6235C25.3748 30.4244 24.8629 30.4935 24.351 30.9282C23.9773 31.241 23.6685 31.1882 23.3354 31.1151C23.3679 30.8022 23.4573 29.9857 23.6604 29.6729C24.412 28.4094 26.0045 27.6578 27.3045 27.0281H27.3004ZM22.5351 27.2922C22.4335 28.2469 22.9332 29.1935 21.9704 30.266C22.1166 29.9654 21.9988 29.7622 21.8241 29.7013C22.0801 29.5266 22.1573 29.2097 21.8932 29.0228C22.1004 28.8888 22.1085 28.4744 21.8851 28.3525C22.1776 28.1128 21.9501 27.6781 22.2629 27.4669C22.3563 27.3613 22.4295 27.3085 22.527 27.2881H22.5351V27.2922ZM26.2157 26.6706L26.7236 26.8941C25.9639 27.2963 25.2042 27.6578 24.5582 28.2144C23.636 28.8847 22.9535 30.4772 22.8073 31.0622C22.6204 31.0785 22.4904 30.9891 22.3238 30.851C22.3685 29.3113 23.9367 27.8 24.9157 27.2678C25.3382 27.0322 25.7282 26.8291 26.2157 26.6706ZM20.9304 27.0363H21.5194V27.4019H20.9304V27.0363ZM25.3748 19.224C26.2767 19.224 26.5773 19.6505 26.5773 19.9024C26.5773 19.6505 26.9104 19.224 27.8367 19.224H29.3073C29.4089 19.7602 29.348 20.4021 29.1489 21.0115C28.7752 21.7224 28.0073 22.0596 27.4467 22.669C26.9064 23.4206 26.9998 24.9278 27.1623 25.3219C27.3939 25.8906 28.2511 26.1994 28.7792 26.2034C29.3073 26.2075 30.5017 26.5366 30.4936 27.666L29.4414 27.6619C29.1652 26.7722 26.8739 27.0688 25.8095 25.7159C25.3626 24.8181 25.8176 23.6806 25.4926 22.7543C25.0701 21.9784 24.6435 22.2262 24.0667 21.0156C23.8513 20.589 23.762 19.9552 23.8513 19.224H25.3748Z" fill="white"/>
<path fill-rule="evenodd" clip-rule="evenodd" d="M26.5001 8.81568C36.1609 8.81568 43.9975 16.6523 43.9975 26.3131C43.9975 35.9738 36.1609 43.8105 26.5001 43.8105C16.8394 43.8105 9.00274 35.9738 9.00274 26.3131C9.00274 16.6523 16.8394 8.81568 26.5001 8.81568ZM26.5001 8.20223C36.4981 8.20223 44.611 16.3111 44.611 26.3131C44.611 36.311 36.5021 44.4239 26.5001 44.4239C16.5022 44.4239 8.38929 36.3151 8.38929 26.3131C8.38929 16.3151 16.4981 8.20223 26.5001 8.20223Z" fill="white"/>
<path fill-rule="evenodd" clip-rule="evenodd" d="M26.5006 0.755608C40.7154 0.755608 52.2409 12.2404 52.2409 26.4065C52.2409 40.5686 40.7154 52.0575 26.5006 52.0575C12.2857 52.0575 0.760248 40.5726 0.760248 26.4065C0.760248 12.2445 12.2857 0.755608 26.5006 0.755608ZM26.5 0C41.1333 0 53 11.8261 53 26.4066C53 40.9871 41.1333 52.8131 26.5 52.8131C11.8667 52.8131 0 40.9871 0 26.4066C0 11.8261 11.8667 0 26.5 0Z" fill="white"/>
<path d="M20.4185 45.988L21.4016 45.7808L21.491 45.8052L20.7313 48.848C20.6826 49.043 20.6582 49.173 20.6623 49.2299C20.6623 49.2787 20.6907 49.3315 20.7395 49.3721C20.7841 49.4127 20.8898 49.4574 21.0523 49.494L21.0279 49.5955L19.671 49.2584L19.6954 49.1568C19.866 49.1974 19.9838 49.2096 20.0366 49.1934C20.0935 49.1852 20.1423 49.1568 20.1707 49.1202C20.1991 49.0796 20.2479 48.9496 20.2966 48.7424L20.7801 46.7964C20.8451 46.5364 20.8735 46.3658 20.8776 46.2846C20.8857 46.2236 20.8695 46.1749 20.837 46.1464C20.8166 46.1099 20.7801 46.0855 20.7313 46.0774C20.6663 46.0571 20.5729 46.0611 20.4348 46.0936L20.4185 45.9961V45.988ZM23.3151 50.1846L23.3232 50.083C23.5589 50.0952 23.7823 50.0587 23.9936 49.9693C24.2048 49.8799 24.4201 49.7093 24.6314 49.4655C24.8467 49.2177 25.0051 48.9374 25.1067 48.6246C24.802 48.779 24.5379 48.848 24.3064 48.8318C24.0504 48.8074 23.8351 48.6896 23.6685 48.4702C23.502 48.2508 23.4289 47.9746 23.4573 47.6455C23.4857 47.3205 23.6076 47.0402 23.8148 46.8046C24.0626 46.5161 24.3714 46.3902 24.7289 46.4186C25.0336 46.4471 25.2814 46.5933 25.4723 46.8615C25.712 47.1986 25.8136 47.5927 25.7689 48.0396C25.7323 48.4499 25.6064 48.8318 25.3667 49.169C25.1392 49.5062 24.8304 49.7743 24.4526 49.9815C24.1439 50.144 23.8229 50.2171 23.4735 50.1805L23.3192 50.1724L23.3151 50.1846ZM25.1717 48.4337C25.2245 48.198 25.257 48.0112 25.2692 47.8649C25.2854 47.6943 25.2733 47.4993 25.2326 47.288C25.1879 47.0768 25.1148 46.9183 25.0214 46.8005C24.9158 46.6786 24.7979 46.6177 24.6557 46.6014C24.4973 46.5893 24.347 46.6461 24.2129 46.7802C24.0789 46.9143 23.9976 47.1296 23.9732 47.4099C23.9407 47.7918 23.9976 48.1005 24.1357 48.328C24.2454 48.4905 24.3795 48.588 24.5501 48.6002C24.6354 48.6083 24.7329 48.5962 24.8507 48.5677C24.9686 48.5393 25.0742 48.4905 25.1717 48.4255V48.4337ZM29.7542 49.4534L29.5267 50.1805L27.3492 50.2943L27.3452 50.1968C27.9545 49.5752 28.3811 49.0715 28.6249 48.6896C28.8686 48.3077 28.9824 47.9624 28.9661 47.6536C28.9539 47.414 28.8727 47.2311 28.7183 47.0849C28.572 46.9427 28.3933 46.8736 28.1902 46.8858C28.0114 46.894 27.8489 46.9549 27.7148 47.0686C27.5727 47.1865 27.4711 47.3449 27.4142 47.5521L27.3127 47.5561C27.337 47.219 27.4427 46.9549 27.6214 46.7639C27.8002 46.5771 28.0277 46.4674 28.3161 46.4552C28.6167 46.4389 28.8727 46.5243 29.0799 46.7071C29.2911 46.8858 29.4049 47.1093 29.4211 47.3733C29.4292 47.5561 29.3967 47.7471 29.3155 47.9421C29.1936 48.2468 28.9905 48.5677 28.7102 48.909C28.2795 49.429 28.0114 49.7459 27.9058 49.8515L28.8727 49.7987C29.0677 49.7905 29.2058 49.7743 29.283 49.754C29.3602 49.7377 29.4292 49.7012 29.4861 49.6524C29.5511 49.6077 29.608 49.5346 29.6446 49.4534L29.7502 49.4493L29.7542 49.4534ZM31.1802 48.0193C31.0827 47.609 31.0583 47.2393 31.1193 46.9102C31.1761 46.5811 31.2858 46.3211 31.4605 46.1343C31.5905 45.9799 31.7449 45.8824 31.9115 45.8418C32.1918 45.7768 32.4721 45.8661 32.7605 46.0936C33.118 46.3821 33.3658 46.8249 33.504 47.4221C33.6015 47.8405 33.6137 48.2102 33.569 48.5352C33.5121 48.8602 33.4146 49.108 33.2521 49.2787C33.0977 49.4574 32.9271 49.563 32.7565 49.5996C32.4112 49.6849 32.078 49.5468 31.753 49.1934C31.4768 48.8968 31.2899 48.5068 31.1802 48.0233V48.0193ZM31.7124 47.9665C31.8343 48.458 31.9846 48.8562 32.1796 49.1405C32.3421 49.3762 32.5249 49.4777 32.724 49.429C32.8255 49.4087 32.9068 49.3437 32.9921 49.234C33.0733 49.1202 33.1221 48.9618 33.1262 48.7505C33.1383 48.4255 33.0815 47.9827 32.9515 47.4261C32.858 47.0158 32.7362 46.6827 32.5899 46.4227C32.4762 46.2358 32.3624 46.1099 32.2365 46.0449C32.1511 46.0043 32.0577 45.9921 31.9521 46.0164C31.8302 46.0449 31.7408 46.1221 31.6636 46.2561C31.5702 46.4308 31.5418 46.6827 31.5661 47.0118C31.5946 47.3368 31.6433 47.6536 31.7083 47.9624L31.7124 47.9665Z" fill="white"/>
<path d="M66.1381 23.9066V13.5475H67.7011V18.4943H67.8275L72.1725 13.5475H74.1401L69.9621 18.2111L74.1553 23.9066H72.2736L68.9251 19.2783L67.7011 20.6845V23.9066H66.1381Z" fill="white"/>
<path d="M78.2536 24.0634C77.4882 24.0634 76.8289 23.8998 76.2759 23.5727C75.7262 23.2423 75.3014 22.7786 75.0012 22.1817C74.7045 21.5815 74.5561 20.8784 74.5561 20.0725C74.5561 19.2767 74.7045 18.5753 75.0012 17.9683C75.3014 17.3613 75.7195 16.8875 76.2557 16.5469C76.7952 16.2064 77.4258 16.0361 78.1474 16.0361C78.5858 16.0361 79.0107 16.1086 79.4221 16.2536C79.8335 16.3986 80.2027 16.6262 80.5298 16.9364C80.8569 17.2467 81.1149 17.6496 81.3037 18.1453C81.4925 18.6377 81.587 19.2362 81.587 19.941V20.4771H75.4109V19.3441H80.1049C80.1049 18.9462 80.024 18.5938 79.8621 18.287C79.7003 17.9767 79.4726 17.7322 79.1793 17.5535C78.8893 17.3748 78.5487 17.2854 78.1575 17.2854C77.7326 17.2854 77.3617 17.39 77.0447 17.599C76.7311 17.8047 76.4883 18.0745 76.3164 18.4083C76.1478 18.7388 76.0635 19.0979 76.0635 19.4857V20.3709C76.0635 20.8902 76.1545 21.332 76.3366 21.6961C76.5221 22.0603 76.78 22.3385 77.1105 22.5307C77.441 22.7196 77.8271 22.814 78.2688 22.814C78.5554 22.814 78.8168 22.7735 79.0528 22.6926C79.2889 22.6083 79.4929 22.4835 79.6649 22.3183C79.8368 22.1531 79.9683 21.9491 80.0594 21.7063L81.4909 21.9642C81.3762 22.3857 81.1705 22.755 80.8738 23.072C80.5804 23.3856 80.2111 23.63 79.766 23.8054C79.3243 23.9774 78.8201 24.0634 78.2536 24.0634Z" fill="white"/>
<path d="M83.265 23.9066V16.1372H84.7167V17.4018H84.8128C84.9747 16.9735 85.2394 16.6397 85.6069 16.4003C85.9745 16.1575 86.4145 16.0361 86.9271 16.0361C87.4464 16.0361 87.8814 16.1575 88.2321 16.4003C88.5862 16.6431 88.8475 16.9769 89.0161 17.4018H89.0971C89.2825 16.987 89.5776 16.6565 89.9822 16.4104C90.3869 16.1608 90.8691 16.0361 91.4289 16.0361C92.1336 16.0361 92.7086 16.2569 93.1537 16.6987C93.6022 17.1404 93.8264 17.8064 93.8264 18.6967V23.9066H92.314V18.8383C92.314 18.3122 92.1707 17.9312 91.8841 17.6951C91.5975 17.4591 91.2552 17.3411 90.8573 17.3411C90.365 17.3411 89.9822 17.4928 89.7091 17.7963C89.436 18.0964 89.2994 18.4825 89.2994 18.9546V23.9066H87.7921V18.7422C87.7921 18.3207 87.6605 17.9818 87.3975 17.7255C87.1345 17.4692 86.7922 17.3411 86.3707 17.3411C86.0841 17.3411 85.8194 17.4169 85.5766 17.5687C85.3372 17.7171 85.1433 17.9244 84.9949 18.1908C84.8499 18.4572 84.7774 18.7658 84.7774 19.1165V23.9066H83.265Z" fill="white"/>
<path d="M98.7619 24.0583C98.1347 24.0583 97.5749 23.8981 97.0826 23.5778C96.5937 23.2541 96.2092 22.7938 95.9294 22.1969C95.6528 21.5967 95.5146 20.8767 95.5146 20.0371C95.5146 19.1974 95.6545 18.4792 95.9344 17.8823C96.2177 17.2854 96.6055 16.8285 97.0978 16.5115C97.5901 16.1946 98.1482 16.0361 98.772 16.0361C99.2543 16.0361 99.6421 16.117 99.9354 16.2789C100.232 16.4374 100.461 16.6228 100.623 16.8353C100.789 17.0477 100.917 17.2349 101.008 17.3967H101.099V16.1372H102.611V23.9066H101.134V22.6977H101.008C100.917 22.8629 100.785 23.0517 100.613 23.2642C100.445 23.4766 100.212 23.6621 99.9152 23.8206C99.6184 23.9791 99.234 24.0583 98.7619 24.0583ZM99.0958 22.7685C99.5308 22.7685 99.8983 22.6538 100.198 22.4245C100.502 22.1918 100.731 21.8698 100.886 21.4584C101.045 21.047 101.124 20.5682 101.124 20.0219C101.124 19.4824 101.047 19.0103 100.891 18.6056C100.736 18.201 100.509 17.8857 100.209 17.6597C99.9084 17.4338 99.5375 17.3208 99.0958 17.3208C98.6405 17.3208 98.2612 17.4389 97.9577 17.6749C97.6542 17.911 97.4249 18.233 97.2698 18.641C97.118 19.049 97.0422 19.5093 97.0422 20.0219C97.0422 20.5412 97.1197 21.0082 97.2748 21.423C97.43 21.8378 97.6592 22.1666 97.9627 22.4093C98.2696 22.6488 98.6473 22.7685 99.0958 22.7685Z" fill="white"/>
<path d="M106.282 19.2935V23.9066H104.77V13.5475H106.262V17.4018H106.358C106.54 16.9836 106.818 16.6515 107.193 16.4053C107.567 16.1592 108.056 16.0361 108.659 16.0361C109.192 16.0361 109.658 16.1457 110.056 16.3649C110.457 16.584 110.767 16.9111 110.986 17.3461C111.209 17.7778 111.32 18.3173 111.32 18.9647V23.9066H109.808V19.1468C109.808 18.577 109.661 18.1352 109.368 17.8216C109.074 17.5046 108.666 17.3461 108.144 17.3461C107.786 17.3461 107.466 17.422 107.182 17.5738C106.903 17.7255 106.682 17.9481 106.52 18.2414C106.361 18.5314 106.282 18.8821 106.282 19.2935Z" fill="white"/>
<path d="M116.247 24.0583C115.62 24.0583 115.06 23.8981 114.567 23.5778C114.078 23.2541 113.694 22.7938 113.414 22.1969C113.138 21.5967 112.999 20.8767 112.999 20.0371C112.999 19.1974 113.139 18.4792 113.419 17.8823C113.702 17.2854 114.09 16.8285 114.583 16.5115C115.075 16.1946 115.633 16.0361 116.257 16.0361C116.739 16.0361 117.127 16.117 117.42 16.2789C117.717 16.4374 117.946 16.6228 118.108 16.8353C118.273 17.0477 118.401 17.2349 118.493 17.3967H118.584V16.1372H120.096V23.9066H118.619V22.6977H118.493C118.401 22.8629 118.27 23.0517 118.098 23.2642C117.929 23.4766 117.697 23.6621 117.4 23.8206C117.103 23.9791 116.719 24.0583 116.247 24.0583ZM116.581 22.7685C117.016 22.7685 117.383 22.6538 117.683 22.4245C117.987 22.1918 118.216 21.8698 118.371 21.4584C118.53 21.047 118.609 20.5682 118.609 20.0219C118.609 19.4824 118.531 19.0103 118.376 18.6056C118.221 18.201 117.993 17.8857 117.693 17.6597C117.393 17.4338 117.022 17.3208 116.581 17.3208C116.125 17.3208 115.746 17.4389 115.442 17.6749C115.139 17.911 114.91 18.233 114.755 18.641C114.603 19.049 114.527 19.5093 114.527 20.0219C114.527 20.5412 114.604 21.0082 114.76 21.423C114.915 21.8378 115.144 22.1666 115.448 22.4093C115.754 22.6488 116.132 22.7685 116.581 22.7685Z" fill="white"/>
<path d="M128.076 18.034L126.706 18.2768C126.648 18.1015 126.557 17.9346 126.433 17.7761C126.311 17.6176 126.146 17.4878 125.937 17.3866C125.728 17.2854 125.466 17.2349 125.153 17.2349C124.725 17.2349 124.367 17.331 124.081 17.5232C123.794 17.712 123.651 17.9565 123.651 18.2566C123.651 18.5163 123.747 18.7253 123.939 18.8838C124.131 19.0423 124.441 19.1721 124.87 19.2733L126.104 19.5565C126.819 19.7218 127.351 19.9764 127.702 20.3203C128.053 20.6643 128.228 21.1111 128.228 21.6607C128.228 22.1261 128.093 22.5409 127.824 22.905C127.557 23.2659 127.185 23.5491 126.706 23.7548C126.23 23.9605 125.679 24.0634 125.052 24.0634C124.182 24.0634 123.472 23.8779 122.922 23.507C122.373 23.1327 122.035 22.6016 121.911 21.9136L123.372 21.6911C123.463 22.0721 123.651 22.3605 123.934 22.556C124.217 22.7482 124.586 22.8444 125.042 22.8444C125.537 22.8444 125.934 22.7415 126.23 22.5358C126.527 22.3267 126.675 22.0721 126.675 21.772C126.675 21.5292 126.584 21.3252 126.402 21.16C126.224 20.9948 125.949 20.87 125.578 20.7857L124.263 20.4974C123.538 20.3321 123.001 20.0691 122.654 19.7083C122.31 19.3475 122.138 18.8906 122.138 18.3375C122.138 17.8789 122.266 17.4776 122.523 17.1337C122.779 16.7897 123.133 16.5217 123.585 16.3294C124.037 16.1339 124.554 16.0361 125.138 16.0361C125.977 16.0361 126.638 16.2182 127.12 16.5824C127.603 16.9432 127.921 17.4271 128.076 18.034Z" fill="white"/>
<path d="M129.891 23.9066V16.1372H131.403V23.9066H129.891ZM130.655 14.9385C130.392 14.9385 130.166 14.8508 129.977 14.6754C129.792 14.4967 129.699 14.2843 129.699 14.0381C129.699 13.7886 129.792 13.5761 129.977 13.4008C130.166 13.222 130.392 13.1327 130.655 13.1327C130.918 13.1327 131.142 13.222 131.328 13.4008C131.516 13.5761 131.611 13.7886 131.611 14.0381C131.611 14.2843 131.516 14.4967 131.328 14.6754C131.142 14.8508 130.918 14.9385 130.655 14.9385Z" fill="white"/>
<path d="M139.26 18.034L137.889 18.2768C137.832 18.1015 137.741 17.9346 137.616 17.7761C137.495 17.6176 137.33 17.4878 137.12 17.3866C136.911 17.2854 136.65 17.2349 136.336 17.2349C135.908 17.2349 135.551 17.331 135.264 17.5232C134.977 17.712 134.834 17.9565 134.834 18.2566C134.834 18.5163 134.93 18.7253 135.122 18.8838C135.315 19.0423 135.625 19.1721 136.053 19.2733L137.287 19.5565C138.002 19.7218 138.535 19.9764 138.886 20.3203C139.236 20.6643 139.412 21.1111 139.412 21.6607C139.412 22.1261 139.277 22.5409 139.007 22.905C138.741 23.2659 138.368 23.5491 137.889 23.7548C137.414 23.9605 136.862 24.0634 136.235 24.0634C135.365 24.0634 134.655 23.8779 134.106 23.507C133.556 23.1327 133.219 22.6016 133.094 21.9136L134.556 21.6911C134.647 22.0721 134.834 22.3605 135.117 22.556C135.401 22.7482 135.77 22.8444 136.225 22.8444C136.721 22.8444 137.117 22.7415 137.414 22.5358C137.711 22.3267 137.859 22.0721 137.859 21.772C137.859 21.5292 137.768 21.3252 137.586 21.16C137.407 20.9948 137.132 20.87 136.761 20.7857L135.446 20.4974C134.721 20.3321 134.185 20.0691 133.838 19.7083C133.494 19.3475 133.322 18.8906 133.322 18.3375C133.322 17.8789 133.45 17.4776 133.706 17.1337C133.962 16.7897 134.317 16.5217 134.768 16.3294C135.22 16.1339 135.738 16.0361 136.321 16.0361C137.161 16.0361 137.822 16.2182 138.304 16.5824C138.786 16.9432 139.105 17.4271 139.26 18.034Z" fill="white"/>
<path d="M142.759 23.9066L140.473 16.1372H142.036L143.558 21.8428H143.634L145.162 16.1372H146.725L148.242 21.8175H148.318L149.83 16.1372H151.393L149.112 23.9066H147.569L145.991 18.2971H145.875L144.297 23.9066H142.759Z" fill="white"/>
<path d="M155.501 24.0583C154.873 24.0583 154.314 23.8981 153.821 23.5778C153.332 23.2541 152.948 22.7938 152.668 22.1969C152.391 21.5967 152.253 20.8767 152.253 20.0371C152.253 19.1974 152.393 18.4792 152.673 17.8823C152.956 17.2854 153.344 16.8285 153.836 16.5115C154.329 16.1946 154.887 16.0361 155.511 16.0361C155.993 16.0361 156.381 16.117 156.674 16.2789C156.971 16.4374 157.2 16.6228 157.362 16.8353C157.527 17.0477 157.655 17.2349 157.746 17.3967H157.837V16.1372H159.35V23.9066H157.873V22.6977H157.746C157.655 22.8629 157.524 23.0517 157.352 23.2642C157.183 23.4766 156.951 23.6621 156.654 23.8206C156.357 23.9791 155.973 24.0583 155.501 24.0583ZM155.834 22.7685C156.269 22.7685 156.637 22.6538 156.937 22.4245C157.241 22.1918 157.47 21.8698 157.625 21.4584C157.783 21.047 157.863 20.5682 157.863 20.0219C157.863 19.4824 157.785 19.0103 157.63 18.6056C157.475 18.201 157.247 17.8857 156.947 17.6597C156.647 17.4338 156.276 17.3208 155.834 17.3208C155.379 17.3208 155 17.4389 154.696 17.6749C154.393 17.911 154.163 18.233 154.008 18.641C153.857 19.049 153.781 19.5093 153.781 20.0219C153.781 20.5412 153.858 21.0082 154.013 21.423C154.169 21.8378 154.398 22.1666 154.701 22.4093C155.008 22.6488 155.386 22.7685 155.834 22.7685Z" fill="white"/>
<path d="M164.417 24.0583C163.79 24.0583 163.23 23.8981 162.737 23.5778C162.249 23.2541 161.864 22.7938 161.584 22.1969C161.308 21.5967 161.169 20.8767 161.169 20.0371C161.169 19.1974 161.309 18.4792 161.589 17.8823C161.873 17.2854 162.26 16.8285 162.753 16.5115C163.245 16.1946 163.803 16.0361 164.427 16.0361C164.909 16.0361 165.297 16.117 165.59 16.2789C165.887 16.4374 166.116 16.6228 166.278 16.8353C166.443 17.0477 166.572 17.2349 166.663 17.3967H166.754V16.1372H168.266V23.9066H166.789V22.6977H166.663C166.572 22.8629 166.44 23.0517 166.268 23.2642C166.099 23.4766 165.867 23.6621 165.57 23.8206C165.273 23.9791 164.889 24.0583 164.417 24.0583ZM164.751 22.7685C165.186 22.7685 165.553 22.6538 165.853 22.4245C166.157 22.1918 166.386 21.8698 166.541 21.4584C166.7 21.047 166.779 20.5682 166.779 20.0219C166.779 19.4824 166.701 19.0103 166.546 18.6056C166.391 18.201 166.164 17.8857 165.863 17.6597C165.563 17.4338 165.192 17.3208 164.751 17.3208C164.295 17.3208 163.916 17.4389 163.613 17.6749C163.309 17.911 163.08 18.233 162.925 18.641C162.773 19.049 162.697 19.5093 162.697 20.0219C162.697 20.5412 162.775 21.0082 162.93 21.423C163.085 21.8378 163.314 22.1666 163.618 22.4093C163.924 22.6488 164.302 22.7685 164.751 22.7685Z" fill="white"/>
<path d="M171.937 19.2935V23.9066H170.425V16.1372H171.876V17.4018H171.972C172.151 16.9904 172.431 16.6599 172.812 16.4104C173.196 16.1608 173.68 16.0361 174.264 16.0361C174.793 16.0361 175.257 16.1474 175.655 16.3699C176.053 16.5891 176.361 16.9162 176.58 17.3512C176.8 17.7862 176.909 18.324 176.909 18.9647V23.9066H175.397V19.1468C175.397 18.5837 175.25 18.1436 174.957 17.8267C174.663 17.5063 174.26 17.3461 173.748 17.3461C173.397 17.3461 173.085 17.422 172.812 17.5738C172.542 17.7255 172.328 17.9481 172.17 18.2414C172.015 18.5314 171.937 18.8821 171.937 19.2935Z" fill="white"/>
<path d="M67.5088 28.5475V38.9066H66.2544V28.5475H67.5088Z" fill="white"/>
<path d="M71.0559 34.2328V38.9066H69.8622V31.1372H71.0154V32.3512H71.1166C71.2987 31.9567 71.5752 31.6397 71.9461 31.4003C72.317 31.1575 72.7959 31.0361 73.3826 31.0361C73.9087 31.0361 74.369 31.144 74.7635 31.3598C75.158 31.5722 75.4649 31.896 75.6841 32.331C75.9033 32.7626 76.0129 33.3089 76.0129 33.9698V38.9066H74.8191V34.0507C74.8191 33.4404 74.6607 32.9649 74.3437 32.6243C74.0267 32.2804 73.5917 32.1084 73.0387 32.1084C72.6576 32.1084 72.317 32.191 72.0169 32.3563C71.7202 32.5215 71.4858 32.7626 71.3138 33.0796C71.1419 33.3965 71.0559 33.781 71.0559 34.2328Z" fill="white"/>
<path d="M83.6975 32.8772L82.6251 33.1807C82.5577 33.002 82.4582 32.8283 82.3267 32.6597C82.1986 32.4878 82.0232 32.3461 81.8007 32.2349C81.5781 32.1236 81.2932 32.0679 80.9458 32.0679C80.4704 32.0679 80.0741 32.1775 79.7572 32.3967C79.4436 32.6125 79.2868 32.8874 79.2868 33.2212C79.2868 33.5179 79.3947 33.7523 79.6105 33.9243C79.8263 34.0963 80.1635 34.2396 80.6221 34.3542L81.7754 34.6375C82.47 34.8061 82.9876 35.0641 83.3282 35.4114C83.6688 35.7553 83.8391 36.1988 83.8391 36.7417C83.8391 37.1868 83.711 37.5847 83.4547 37.9354C83.2018 38.2861 82.8477 38.5626 82.3925 38.7649C81.9372 38.9673 81.4078 39.0684 80.8042 39.0684C80.0118 39.0684 79.3559 38.8964 78.8366 38.5525C78.3173 38.2085 77.9885 37.7061 77.8503 37.0452L78.9833 36.7619C79.0912 37.18 79.2952 37.4937 79.5953 37.7027C79.8988 37.9118 80.295 38.0163 80.784 38.0163C81.3404 38.0163 81.7821 37.8983 82.1092 37.6623C82.4397 37.4228 82.6049 37.1362 82.6049 36.8024C82.6049 36.5326 82.5105 36.3067 82.3217 36.1246C82.1328 35.9391 81.8428 35.8009 81.4517 35.7098L80.1568 35.4063C79.4453 35.2377 78.9226 34.9764 78.5887 34.6223C78.2583 34.2649 78.093 33.8181 78.093 33.2819C78.093 32.8435 78.2161 32.4557 78.4623 32.1185C78.7118 31.7813 79.0507 31.5166 79.479 31.3244C79.9106 31.1322 80.3996 31.0361 80.9458 31.0361C81.7147 31.0361 82.3183 31.2047 82.7567 31.5419C83.1984 31.8791 83.512 32.3242 83.6975 32.8772Z" fill="white"/>
<path d="M89.0149 31.1372V32.1489H84.9886V31.1372H89.0149ZM86.1621 29.2758H87.3558V36.681C87.3558 37.0182 87.4047 37.2711 87.5025 37.4397C87.6036 37.6049 87.7318 37.7162 87.8869 37.7735C88.0454 37.8275 88.2123 37.8545 88.3876 37.8545C88.5192 37.8545 88.6271 37.8477 88.7114 37.8342C88.7957 37.8174 88.8631 37.8039 88.9137 37.7938L89.1565 38.8661C89.0756 38.8964 88.9626 38.9268 88.8176 38.9571C88.6726 38.9909 88.4888 39.0077 88.2663 39.0077C87.929 39.0077 87.5986 38.9352 87.2749 38.7902C86.9545 38.6452 86.6881 38.4244 86.4757 38.1276C86.2666 37.8309 86.1621 37.4566 86.1621 37.0047V29.2758Z" fill="white"/>
<path d="M90.8105 38.9066V31.1372H92.0042V38.9066H90.8105ZM91.4175 29.8423C91.1848 29.8423 90.9842 29.7631 90.8156 29.6046C90.6503 29.4461 90.5677 29.2556 90.5677 29.033C90.5677 28.8105 90.6503 28.62 90.8156 28.4615C90.9842 28.303 91.1848 28.2237 91.4175 28.2237C91.6502 28.2237 91.8491 28.303 92.0144 28.4615C92.183 28.62 92.2673 28.8105 92.2673 29.033C92.2673 29.2556 92.183 29.4461 92.0144 29.6046C91.8491 29.7631 91.6502 29.8423 91.4175 29.8423Z" fill="white"/>
<path d="M97.5695 31.1372V32.1489H93.5432V31.1372H97.5695ZM94.7167 29.2758H95.9104V36.681C95.9104 37.0182 95.9593 37.2711 96.0571 37.4397C96.1582 37.6049 96.2864 37.7162 96.4415 37.7735C96.6 37.8275 96.7669 37.8545 96.9423 37.8545C97.0738 37.8545 97.1817 37.8477 97.266 37.8342C97.3503 37.8174 97.4177 37.8039 97.4683 37.7938L97.7111 38.8661C97.6302 38.8964 97.5172 38.9268 97.3722 38.9571C97.2272 38.9909 97.0434 39.0077 96.8209 39.0077C96.4837 39.0077 96.1532 38.9352 95.8295 38.7902C95.5091 38.6452 95.2427 38.4244 95.0303 38.1276C94.8212 37.8309 94.7167 37.4566 94.7167 37.0047V29.2758Z" fill="white"/>
<path d="M104.261 35.73V31.1372H105.455V38.9066H104.261V37.5914H104.18C103.998 37.986 103.715 38.3215 103.331 38.598C102.946 38.8712 102.461 39.0077 101.874 39.0077C101.388 39.0077 100.957 38.9015 100.579 38.6891C100.201 38.4732 99.9046 38.1495 99.6888 37.7179C99.473 37.2829 99.3651 36.7349 99.3651 36.074V31.1372H100.559V35.9931C100.559 36.5596 100.717 37.0114 101.034 37.3487C101.355 37.6859 101.763 37.8545 102.258 37.8545C102.555 37.8545 102.857 37.7786 103.164 37.6269C103.474 37.4751 103.734 37.2424 103.943 36.9288C104.155 36.6152 104.261 36.2156 104.261 35.73Z" fill="white"/>
<path d="M111.02 31.1372V32.1489H106.994V31.1372H111.02ZM108.168 29.2758H109.361V36.681C109.361 37.0182 109.41 37.2711 109.508 37.4397C109.609 37.6049 109.737 37.7162 109.892 37.7735C110.051 37.8275 110.218 37.8545 110.393 37.8545C110.525 37.8545 110.633 37.8477 110.717 37.8342C110.801 37.8174 110.869 37.8039 110.919 37.7938L111.162 38.8661C111.081 38.8964 110.968 38.9268 110.823 38.9571C110.678 38.9909 110.494 39.0077 110.272 39.0077C109.935 39.0077 109.604 38.9352 109.28 38.7902C108.96 38.6452 108.694 38.4244 108.481 38.1276C108.272 37.8309 108.168 37.4566 108.168 37.0047V29.2758Z" fill="white"/>
<path d="M116.417 29.6603V28.5475H124.187V29.6603H120.929V38.9066H119.675V29.6603H116.417Z" fill="white"/>
<path d="M128.092 39.0684C127.343 39.0684 126.697 38.9032 126.154 38.5727C125.615 38.2389 125.198 37.7735 124.905 37.1767C124.615 36.5764 124.47 35.8784 124.47 35.0826C124.47 34.2868 124.615 33.5854 124.905 32.9784C125.198 32.3681 125.606 31.8926 126.129 31.552C126.655 31.208 127.269 31.0361 127.97 31.0361C128.375 31.0361 128.775 31.1035 129.169 31.2384C129.564 31.3733 129.923 31.5925 130.246 31.896C130.57 32.1961 130.828 32.594 131.02 33.0897C131.213 33.5854 131.309 34.1957 131.309 34.9207V35.4266H125.32V34.3947H130.095C130.095 33.9563 130.007 33.5651 129.832 33.2212C129.66 32.8772 129.414 32.6058 129.093 32.4068C128.776 32.2079 128.402 32.1084 127.97 32.1084C127.495 32.1084 127.083 32.2264 126.736 32.4625C126.392 32.6951 126.127 32.9986 125.942 33.3729C125.756 33.7472 125.664 34.1485 125.664 34.5768V35.2647C125.664 35.8514 125.765 36.3488 125.967 36.7568C126.173 37.1615 126.458 37.47 126.822 37.6825C127.186 37.8916 127.609 37.9961 128.092 37.9961C128.405 37.9961 128.689 37.9523 128.941 37.8646C129.198 37.7735 129.419 37.6387 129.604 37.4599C129.79 37.2778 129.933 37.0519 130.034 36.7821L131.187 37.1059C131.066 37.497 130.862 37.841 130.575 38.1377C130.289 38.4311 129.935 38.6604 129.513 38.8256C129.091 38.9875 128.618 39.0684 128.092 39.0684Z" fill="white"/>
<path d="M134.237 36.074L134.217 34.597H134.46L137.859 31.1372H139.336L135.714 34.7993H135.613L134.237 36.074ZM133.125 38.9066V28.5475H134.318V38.9066H133.125ZM138.061 38.9066L135.026 35.0624L135.876 34.2328L139.579 38.9066H138.061Z" fill="white"/>
<path d="M142.066 34.2328V38.9066H140.872V31.1372H142.026V32.3512H142.127C142.309 31.9567 142.585 31.6397 142.956 31.4003C143.327 31.1575 143.806 31.0361 144.393 31.0361C144.919 31.0361 145.379 31.144 145.774 31.3598C146.168 31.5722 146.475 31.896 146.694 32.331C146.913 32.7626 147.023 33.3089 147.023 33.9698V38.9066H145.829V34.0507C145.829 33.4404 145.671 32.9649 145.354 32.6243C145.037 32.2804 144.602 32.1084 144.049 32.1084C143.668 32.1084 143.327 32.191 143.027 32.3563C142.73 32.5215 142.496 32.7626 142.324 33.0796C142.152 33.3965 142.066 33.781 142.066 34.2328Z" fill="white"/>
<path d="M152.361 39.0684C151.659 39.0684 151.044 38.9015 150.514 38.5677C149.988 38.2338 149.577 37.7668 149.28 37.1666C148.987 36.5663 148.84 35.8649 148.84 35.0624C148.84 34.2531 148.987 33.5466 149.28 32.943C149.577 32.3394 149.988 31.8707 150.514 31.5368C151.044 31.203 151.659 31.0361 152.361 31.0361C153.062 31.0361 153.676 31.203 154.202 31.5368C154.731 31.8707 155.143 32.3394 155.436 32.943C155.733 33.5466 155.881 34.2531 155.881 35.0624C155.881 35.8649 155.733 36.5663 155.436 37.1666C155.143 37.7668 154.731 38.2338 154.202 38.5677C153.676 38.9015 153.062 39.0684 152.361 39.0684ZM152.361 37.9961C152.893 37.9961 153.332 37.8595 153.676 37.5864C154.02 37.3132 154.274 36.9541 154.44 36.509C154.605 36.0639 154.687 35.5817 154.687 35.0624C154.687 34.5431 154.605 34.0592 154.44 33.6107C154.274 33.1622 154.02 32.7997 153.676 32.5232C153.332 32.2467 152.893 32.1084 152.361 32.1084C151.828 32.1084 151.39 32.2467 151.046 32.5232C150.702 32.7997 150.447 33.1622 150.282 33.6107C150.117 34.0592 150.034 34.5431 150.034 35.0624C150.034 35.5817 150.117 36.0639 150.282 36.509C150.447 36.9541 150.702 37.3132 151.046 37.5864C151.39 37.8595 151.828 37.9961 152.361 37.9961Z" fill="white"/>
<path d="M158.897 28.5475V38.9066H157.703V28.5475H158.897Z" fill="white"/>
<path d="M164.24 39.0684C163.538 39.0684 162.923 38.9015 162.394 38.5677C161.867 38.2338 161.456 37.7668 161.159 37.1666C160.866 36.5663 160.719 35.8649 160.719 35.0624C160.719 34.2531 160.866 33.5466 161.159 32.943C161.456 32.3394 161.867 31.8707 162.394 31.5368C162.923 31.203 163.538 31.0361 164.24 31.0361C164.941 31.0361 165.555 31.203 166.081 31.5368C166.61 31.8707 167.022 32.3394 167.315 32.943C167.612 33.5466 167.76 34.2531 167.76 35.0624C167.76 35.8649 167.612 36.5663 167.315 37.1666C167.022 37.7668 166.61 38.2338 166.081 38.5677C165.555 38.9015 164.941 39.0684 164.24 39.0684ZM164.24 37.9961C164.773 37.9961 165.211 37.8595 165.555 37.5864C165.899 37.3132 166.153 36.9541 166.319 36.509C166.484 36.0639 166.567 35.5817 166.567 35.0624C166.567 34.5431 166.484 34.0592 166.319 33.6107C166.153 33.1622 165.899 32.7997 165.555 32.5232C165.211 32.2467 164.773 32.1084 164.24 32.1084C163.707 32.1084 163.269 32.2467 162.925 32.5232C162.581 32.7997 162.326 33.1622 162.161 33.6107C161.996 34.0592 161.913 34.5431 161.913 35.0624C161.913 35.5817 161.996 36.0639 162.161 36.509C162.326 36.9541 162.581 37.3132 162.925 37.5864C163.269 37.8595 163.707 37.9961 164.24 37.9961Z" fill="white"/>
<path d="M172.719 41.9819C172.142 41.9819 171.646 41.9077 171.231 41.7594C170.817 41.6144 170.471 41.4222 170.194 41.1827C169.921 40.9467 169.704 40.6938 169.542 40.424L170.493 39.7563C170.601 39.898 170.737 40.0598 170.903 40.2419C171.068 40.4274 171.294 40.5876 171.58 40.7224C171.87 40.8607 172.25 40.9298 172.719 40.9298C173.346 40.9298 173.863 40.7781 174.271 40.4746C174.679 40.1711 174.883 39.6956 174.883 39.0482V37.47H174.782C174.695 37.6117 174.57 37.787 174.408 37.9961C174.249 38.2018 174.02 38.3856 173.72 38.5474C173.423 38.7059 173.022 38.7852 172.516 38.7852C171.889 38.7852 171.326 38.6368 170.827 38.34C170.331 38.0433 169.938 37.6117 169.648 37.0452C169.362 36.4786 169.218 35.7907 169.218 34.9814C169.218 34.1856 169.358 33.4926 169.638 32.9025C169.918 32.309 170.307 31.8504 170.807 31.5267C171.306 31.1996 171.882 31.0361 172.536 31.0361C173.042 31.0361 173.444 31.1204 173.74 31.289C174.04 31.4542 174.27 31.643 174.428 31.8555C174.59 32.0646 174.715 32.2365 174.802 32.3714H174.924V31.1372H176.077V39.1291C176.077 39.7968 175.925 40.3397 175.622 40.7578C175.322 41.1794 174.917 41.4879 174.408 41.6835C173.902 41.8824 173.339 41.9819 172.719 41.9819ZM172.678 37.7128C173.157 37.7128 173.562 37.6032 173.892 37.3841C174.222 37.1649 174.474 36.8496 174.646 36.4382C174.818 36.0268 174.904 35.5345 174.904 34.9612C174.904 34.4014 174.819 33.9074 174.651 33.4792C174.482 33.0509 174.233 32.7154 173.902 32.4726C173.572 32.2298 173.164 32.1084 172.678 32.1084C172.172 32.1084 171.751 32.2365 171.413 32.4928C171.08 32.7491 170.828 33.0931 170.66 33.5247C170.495 33.9563 170.412 34.4352 170.412 34.9612C170.412 35.5007 170.496 35.9779 170.665 36.3927C170.837 36.8041 171.09 37.1278 171.424 37.3638C171.761 37.5965 172.179 37.7128 172.678 37.7128Z" fill="white"/>
<path d="M178.262 38.9066V31.1372H179.456V38.9066H178.262ZM178.869 29.8423C178.637 29.8423 178.436 29.7631 178.267 29.6046C178.102 29.4461 178.019 29.2556 178.019 29.033C178.019 28.8105 178.102 28.62 178.267 28.4615C178.436 28.303 178.637 28.2237 178.869 28.2237C179.102 28.2237 179.301 28.303 179.466 28.4615C179.635 28.62 179.719 28.8105 179.719 29.033C179.719 29.2556 179.635 29.4461 179.466 29.6046C179.301 29.7631 179.102 29.8423 178.869 29.8423Z" fill="white"/>
<path d="M185.81 38.9066V28.5475H189.432C190.154 28.5475 190.749 28.6722 191.217 28.9218C191.686 29.1679 192.035 29.5001 192.264 29.9182C192.494 30.333 192.608 30.7933 192.608 31.2991C192.608 31.7442 192.529 32.1118 192.371 32.4018C192.216 32.6918 192.01 32.9211 191.754 33.0897C191.501 33.2583 191.226 33.3831 190.929 33.464V33.5652C191.246 33.5854 191.565 33.6967 191.885 33.899C192.205 34.1013 192.474 34.3913 192.689 34.769C192.905 35.1467 193.013 35.6086 193.013 36.1549C193.013 36.6742 192.895 37.1413 192.659 37.556C192.423 37.9708 192.05 38.2996 191.541 38.5424C191.032 38.7852 190.369 38.9066 189.553 38.9066H185.81ZM187.065 37.7938H189.553C190.373 37.7938 190.954 37.6353 191.298 37.3183C191.646 36.998 191.819 36.6102 191.819 36.1549C191.819 35.8042 191.73 35.4805 191.551 35.1838C191.373 34.8836 191.118 34.6442 190.788 34.4655C190.457 34.2834 190.066 34.1924 189.614 34.1924H187.065V37.7938ZM187.065 33.0998H189.391C189.769 33.0998 190.11 33.0256 190.413 32.8772C190.72 32.7289 190.963 32.5198 191.142 32.25C191.324 31.9803 191.415 31.6633 191.415 31.2991C191.415 30.8439 191.256 30.4578 190.939 30.1408C190.622 29.8204 190.12 29.6603 189.432 29.6603H187.065V33.0998Z" fill="white"/>
<path d="M197.846 39.0684C197.199 39.0684 196.627 38.9049 196.131 38.5778C195.636 38.2473 195.248 37.782 194.968 37.1817C194.688 36.5781 194.548 35.8649 194.548 35.0421C194.548 34.2261 194.688 33.5179 194.968 32.9177C195.248 32.3175 195.637 31.8538 196.137 31.5267C196.636 31.1996 197.212 31.0361 197.866 31.0361C198.372 31.0361 198.772 31.1204 199.065 31.289C199.362 31.4542 199.588 31.643 199.743 31.8555C199.901 32.0646 200.025 32.2365 200.112 32.3714H200.213V31.1372H201.407V38.9066H200.254V37.7128H200.112C200.025 37.8545 199.9 38.0332 199.738 38.249C199.576 38.4614 199.345 38.652 199.045 38.8206C198.745 38.9858 198.345 39.0684 197.846 39.0684ZM198.008 37.9961C198.487 37.9961 198.892 37.8713 199.222 37.6218C199.552 37.3689 199.804 37.0199 199.976 36.5748C200.148 36.1263 200.234 35.6086 200.234 35.0219C200.234 34.4419 200.149 33.9344 199.981 33.4994C199.812 33.061 199.563 32.7204 199.232 32.4776C198.902 32.2315 198.494 32.1084 198.008 32.1084C197.502 32.1084 197.081 32.2382 196.743 32.4979C196.41 32.7542 196.158 33.1032 195.99 33.5449C195.825 33.9833 195.742 34.4756 195.742 35.0219C195.742 35.5749 195.826 36.0774 195.995 36.5292C196.167 36.9777 196.42 37.3352 196.754 37.6016C197.091 37.8646 197.509 37.9961 198.008 37.9961Z" fill="white"/>
<path d="M204.953 34.2328V38.9066H203.759V31.1372H204.912V32.3512H205.014C205.196 31.9567 205.472 31.6397 205.843 31.4003C206.214 31.1575 206.693 31.0361 207.28 31.0361C207.806 31.0361 208.266 31.144 208.66 31.3598C209.055 31.5722 209.362 31.896 209.581 32.331C209.8 32.7626 209.91 33.3089 209.91 33.9698V38.9066H208.716V34.0507C208.716 33.4404 208.558 32.9649 208.241 32.6243C207.924 32.2804 207.489 32.1084 206.936 32.1084C206.555 32.1084 206.214 32.191 205.914 32.3563C205.617 32.5215 205.383 32.7626 205.211 33.0796C205.039 33.3965 204.953 33.781 204.953 34.2328Z" fill="white"/>
<path d="M215.025 39.0684C214.377 39.0684 213.806 38.9049 213.31 38.5778C212.815 38.2473 212.427 37.782 212.147 37.1817C211.867 36.5781 211.727 35.8649 211.727 35.0421C211.727 34.2261 211.867 33.5179 212.147 32.9177C212.427 32.3175 212.816 31.8538 213.315 31.5267C213.814 31.1996 214.391 31.0361 215.045 31.0361C215.551 31.0361 215.951 31.1204 216.244 31.289C216.541 31.4542 216.767 31.643 216.922 31.8555C217.08 32.0646 217.203 32.2365 217.291 32.3714H217.392V28.5475H218.586V38.9066H217.433V37.7128H217.291C217.203 37.8545 217.079 38.0332 216.917 38.249C216.755 38.4614 216.524 38.652 216.224 38.8206C215.924 38.9858 215.524 39.0684 215.025 39.0684ZM215.187 37.9961C215.666 37.9961 216.07 37.8713 216.401 37.6218C216.731 37.3689 216.982 37.0199 217.154 36.5748C217.326 36.1263 217.412 35.6086 217.412 35.0219C217.412 34.4419 217.328 33.9344 217.159 33.4994C216.991 33.061 216.741 32.7204 216.411 32.4776C216.08 32.2315 215.672 32.1084 215.187 32.1084C214.681 32.1084 214.259 32.2382 213.922 32.4979C213.588 32.7542 213.337 33.1032 213.169 33.5449C213.003 33.9833 212.921 34.4756 212.921 35.0219C212.921 35.5749 213.005 36.0774 213.174 36.5292C213.346 36.9777 213.599 37.3352 213.932 37.6016C214.27 37.8646 214.688 37.9961 215.187 37.9961Z" fill="white"/>
<path d="M225.834 35.73V31.1372H227.028V38.9066H225.834V37.5914H225.753C225.571 37.986 225.288 38.3215 224.904 38.598C224.519 38.8712 224.034 39.0077 223.447 39.0077C222.961 39.0077 222.53 38.9015 222.152 38.6891C221.774 38.4732 221.477 38.1495 221.262 37.7179C221.046 37.2829 220.938 36.7349 220.938 36.074V31.1372H222.132V35.9931C222.132 36.5596 222.29 37.0114 222.607 37.3487C222.927 37.6859 223.335 37.8545 223.831 37.8545C224.128 37.8545 224.43 37.7786 224.737 37.6269C225.047 37.4751 225.306 37.2424 225.516 36.9288C225.728 36.6152 225.834 36.2156 225.834 35.73Z" fill="white"/>
<path d="M230.408 34.2328V38.9066H229.214V31.1372H230.368V32.3512H230.469C230.651 31.9567 230.927 31.6397 231.298 31.4003C231.669 31.1575 232.148 31.0361 232.735 31.0361C233.261 31.0361 233.721 31.144 234.116 31.3598C234.51 31.5722 234.817 31.896 235.036 32.331C235.255 32.7626 235.365 33.3089 235.365 33.9698V38.9066H234.171V34.0507C234.171 33.4404 234.013 32.9649 233.696 32.6243C233.379 32.2804 232.944 32.1084 232.391 32.1084C232.01 32.1084 231.669 32.191 231.369 32.3563C231.072 32.5215 230.838 32.7626 230.666 33.0796C230.494 33.3965 230.408 33.781 230.408 34.2328Z" fill="white"/>
<path d="M240.682 41.9819C240.106 41.9819 239.61 41.9077 239.195 41.7594C238.781 41.6144 238.435 41.4222 238.158 41.1827C237.885 40.9467 237.668 40.6938 237.506 40.424L238.457 39.7563C238.565 39.898 238.701 40.0598 238.867 40.2419C239.032 40.4274 239.258 40.5876 239.544 40.7224C239.834 40.8607 240.214 40.9298 240.682 40.9298C241.31 40.9298 241.827 40.7781 242.235 40.4746C242.643 40.1711 242.847 39.6956 242.847 39.0482V37.47H242.746C242.658 37.6117 242.534 37.787 242.372 37.9961C242.213 38.2018 241.984 38.3856 241.684 38.5474C241.387 38.7059 240.986 38.7852 240.48 38.7852C239.853 38.7852 239.29 38.6368 238.791 38.34C238.295 38.0433 237.902 37.6117 237.612 37.0452C237.325 36.4786 237.182 35.7907 237.182 34.9814C237.182 34.1856 237.322 33.4926 237.602 32.9025C237.882 32.309 238.271 31.8504 238.77 31.5267C239.27 31.1996 239.846 31.0361 240.5 31.0361C241.006 31.0361 241.407 31.1204 241.704 31.289C242.004 31.4542 242.234 31.643 242.392 31.8555C242.554 32.0646 242.679 32.2365 242.766 32.3714H242.888V31.1372H244.041V39.1291C244.041 39.7968 243.889 40.3397 243.586 40.7578C243.286 41.1794 242.881 41.4879 242.372 41.6835C241.866 41.8824 241.303 41.9819 240.682 41.9819ZM240.642 37.7128C241.121 37.7128 241.525 37.6032 241.856 37.3841C242.186 37.1649 242.438 36.8496 242.61 36.4382C242.782 36.0268 242.868 35.5345 242.868 34.9612C242.868 34.4014 242.783 33.9074 242.615 33.4792C242.446 33.0509 242.196 32.7154 241.866 32.4726C241.536 32.2298 241.128 32.1084 240.642 32.1084C240.136 32.1084 239.715 32.2365 239.377 32.4928C239.044 32.7491 238.792 33.0931 238.624 33.5247C238.459 33.9563 238.376 34.4352 238.376 34.9612C238.376 35.5007 238.46 35.9779 238.629 36.3927C238.801 36.8041 239.054 37.1278 239.388 37.3638C239.725 37.5965 240.143 37.7128 240.642 37.7128Z" fill="white"/>
</svg>
