<svg width="41" height="41" viewBox="0 0 41 41" fill="none" xmlns="http://www.w3.org/2000/svg">
<path d="M10.1469 20.2989C10.1454 19.2616 10.3492 18.2342 10.7465 17.276C11.1438 16.3177 11.7268 15.4476 12.4617 14.7156C13.1967 13.9837 14.0694 13.4043 15.0292 13.011C15.9892 12.6177 17.0174 12.4182 18.0547 12.4239C22.386 12.4568 25.8531 16.0552 25.8531 20.3974V21.1739C25.8531 25.0896 26.6734 27.3646 27.3952 28.6114C27.4719 28.7443 27.5125 28.8949 27.5125 29.0482C27.5127 29.2015 27.4725 29.3522 27.3961 29.4851C27.3196 29.618 27.2096 29.7286 27.0771 29.8056C26.9445 29.8826 26.7939 29.9234 26.6407 29.9239H9.35944C9.20605 29.9234 9.05545 29.8826 8.923 29.8056C8.79034 29.7286 8.68033 29.618 8.60385 29.4851C8.52737 29.3522 8.48721 29.2015 8.48743 29.0482C8.48764 28.8949 8.52802 28.7443 8.60471 28.6114C9.32654 27.3646 10.1469 25.0896 10.1469 21.1739V20.2989Z" fill="#8ED3FF"/>
<path fill-rule="evenodd" clip-rule="evenodd" d="M9.27185 21.1739V20.2989C9.27185 20.2989 9.26939 18.5539 9.93818 16.9409C9.93818 16.9409 10.607 15.3278 11.8443 14.0956C11.8443 14.0956 13.0816 12.8634 14.6975 12.2013C14.6975 12.2013 16.3133 11.5392 18.0595 11.5489C18.0595 11.5489 19.8351 11.5624 21.4519 12.2717C21.4519 12.2717 23.0075 12.9542 24.2051 14.1843C24.2051 14.1843 25.3979 15.4095 26.0521 16.9895C26.0521 16.9895 26.7281 18.6221 26.7281 20.3974V21.1739C26.7281 21.1739 26.7281 25.7126 28.1525 28.173C28.1525 28.173 28.3871 28.5793 28.3875 29.0474C28.3875 29.0474 28.3879 29.5155 28.1546 29.9212C28.1546 29.9212 27.9213 30.327 27.5165 30.5622C27.5165 30.5622 27.1118 30.7973 26.6437 30.7989L9.35935 30.7989C9.35935 30.7989 8.88818 30.7973 8.48342 30.5622C8.48342 30.5622 8.07867 30.327 7.84534 29.9213C7.84534 29.9213 7.61201 29.5155 7.61243 29.0474C7.61243 29.0474 7.61284 28.5793 7.84689 28.1739C7.84689 28.1739 9.27185 25.7126 9.27185 21.1739ZM11.0218 21.1739C11.0218 21.1739 11.0218 26.1827 9.36243 29.0489L26.6375 29.0489C26.6375 29.0489 24.9781 26.1819 24.9781 21.1739V20.3974C24.9781 20.3974 24.9781 17.4871 22.9511 15.405C22.9511 15.405 20.922 13.3207 18.0498 13.2989C18.0498 13.2989 16.6533 13.2911 15.361 13.8206C15.361 13.8206 14.0687 14.3501 13.0792 15.3356C13.0792 15.3356 12.0896 16.321 11.5547 17.6111C11.5547 17.6111 11.0199 18.9011 11.0218 20.2989V21.1739Z" fill="#EEF8FF"/>
<path d="M22.375 30.799V29.924C22.375 29.4407 21.9832 29.049 21.5 29.049C21.0168 29.049 20.625 29.4407 20.625 29.924V30.799C20.625 31.8863 19.8562 32.6551 19.8562 32.6551C19.0873 33.424 18 33.424 18 33.424C16.9127 33.424 16.1438 32.6551 16.1438 32.6551C15.375 31.8863 15.375 30.799 15.375 30.799V29.924C15.375 29.4407 14.9832 29.049 14.5 29.049C14.0168 29.049 13.625 29.4407 13.625 29.924L13.625 30.799C13.625 32.6111 14.9064 33.8925 14.9064 33.8925C16.1878 35.174 18 35.174 18 35.174C19.8122 35.174 21.0936 33.8925 21.0936 33.8925C22.375 32.6111 22.375 30.799 22.375 30.799Z" fill="#EEF8FF"/>
<rect x="12" y="0.946411" width="29" height="18" rx="9" fill="#C6C7F8"/>
<path d="M23.6989 5.21914V13.9464H22.642V6.75323H22.5739C22.5341 6.83277 22.4318 6.92368 22.267 7.02596C22.1023 7.12539 21.8892 7.21346 21.6278 7.29016C21.3665 7.36402 21.0682 7.40096 20.733 7.40096V6.51459C21.071 6.51459 21.3636 6.45351 21.6108 6.33135C21.858 6.20919 22.0639 6.06573 22.2287 5.90096C22.3963 5.73618 22.5227 5.58704 22.608 5.45351C22.696 5.31999 22.7472 5.24187 22.7614 5.21914H23.6989ZM26.2003 13.9464V13.1794L29.081 10.026C29.419 9.65664 29.6974 9.33562 29.9162 9.06289C30.1349 8.78732 30.2969 8.5288 30.402 8.28732C30.5099 8.043 30.5639 7.78732 30.5639 7.52027C30.5639 7.21346 30.4901 6.94783 30.3423 6.7234C30.1974 6.49897 29.9986 6.32567 29.7457 6.20351C29.4929 6.08135 29.2088 6.02027 28.8935 6.02027C28.5582 6.02027 28.2656 6.08988 28.0156 6.22908C27.7685 6.36544 27.5767 6.55721 27.4403 6.80437C27.3068 7.05152 27.2401 7.3413 27.2401 7.67368H26.2344C26.2344 7.16232 26.3523 6.71346 26.5881 6.32709C26.8239 5.94073 27.1449 5.63959 27.5511 5.42368C27.9602 5.20777 28.419 5.09982 28.9276 5.09982C29.4389 5.09982 29.892 5.20777 30.2869 5.42368C30.6818 5.63959 30.9915 5.93079 31.2159 6.29726C31.4403 6.66374 31.5526 7.07141 31.5526 7.52027C31.5526 7.8413 31.4943 8.15522 31.3778 8.46204C31.2642 8.76601 31.0653 9.1055 30.7812 9.4805C30.5 9.85266 30.1094 10.3072 29.6094 10.8441L27.6491 12.9407V13.0089H31.706V13.9464H26.2003Z" fill="#1C1C1C"/>
</svg>
