<svg width="36" height="36" viewBox="0 0 36 36" fill="none" xmlns="http://www.w3.org/2000/svg">
<path d="M28.5 18C28.5016 19.4726 28.1926 20.9289 27.5933 22.274C26.994 23.619 26.1178 24.8226 25.0219 25.8061C24.363 24.5101 23.3582 23.4218 22.1188 22.6618C20.8795 21.9018 19.4539 21.4997 18 21.5C18.8653 21.5 19.7112 21.2434 20.4306 20.7627C21.1501 20.282 21.7108 19.5987 22.042 18.7993C22.3731 17.9999 22.4597 17.1202 22.2909 16.2715C22.1221 15.4229 21.7054 14.6433 21.0936 14.0314C20.4817 13.4196 19.7022 13.0029 18.8535 12.8341C18.0049 12.6653 17.1252 12.7519 16.3258 13.0831C15.5263 13.4142 14.8431 13.975 14.3623 14.6944C13.8816 15.4139 13.625 16.2597 13.625 17.125C13.625 18.2854 14.0859 19.3982 14.9064 20.2186C15.7269 21.0391 16.8397 21.5 18 21.5C16.5461 21.4997 15.1206 21.9018 13.8812 22.6618C12.6418 23.4218 11.637 24.5101 10.9781 25.8061C9.67684 24.6357 8.68879 23.1585 8.10382 21.5089C7.51884 19.8593 7.35551 18.0896 7.62866 16.3608C7.90182 14.632 8.6028 12.9989 9.66787 11.61C10.7329 10.2211 12.1283 9.12053 13.7271 8.40827C15.3258 7.69602 17.0773 7.39471 18.8221 7.53175C20.567 7.66879 22.2499 8.23984 23.7179 9.19296C25.1859 10.1461 26.3923 11.451 27.2275 12.9892C28.0627 14.5273 28.5001 16.2498 28.5 18Z" fill="#8ED3FF"/>
<path d="M18 6.625C15.7502 6.625 13.551 7.29213 11.6804 8.54203C9.80978 9.79193 8.35182 11.5685 7.49088 13.647C6.62993 15.7255 6.40467 18.0126 6.84357 20.2192C7.28248 22.4257 8.36584 24.4525 9.95667 26.0433C11.5475 27.6342 13.5743 28.7175 15.7809 29.1564C17.9874 29.5953 20.2745 29.3701 22.353 28.5091C24.4315 27.6482 26.2081 26.1902 27.458 24.3196C28.7079 22.449 29.375 20.2498 29.375 18C29.3718 14.9841 28.1724 12.0927 26.0398 9.96018C23.9073 7.82764 21.0159 6.62818 18 6.625ZM12.1025 25.6016C12.7355 24.6116 13.6075 23.7969 14.6382 23.2326C15.6688 22.6682 16.825 22.3724 18 22.3724C19.175 22.3724 20.3312 22.6682 21.3618 23.2326C22.3925 23.7969 23.2645 24.6116 23.8975 25.6016C22.2113 26.913 20.1361 27.6249 18 27.6249C15.8639 27.6249 13.7887 26.913 12.1025 25.6016ZM14.5 17.125C14.5 16.4328 14.7053 15.7561 15.0899 15.1805C15.4744 14.6049 16.0211 14.1563 16.6606 13.8914C17.3002 13.6265 18.0039 13.5572 18.6828 13.6923C19.3618 13.8273 19.9854 14.1606 20.4749 14.6501C20.9644 15.1396 21.2977 15.7633 21.4328 16.4422C21.5678 17.1211 21.4985 17.8249 21.2336 18.4644C20.9687 19.1039 20.5201 19.6506 19.9445 20.0351C19.3689 20.4197 18.6922 20.625 18 20.625C17.0717 20.625 16.1815 20.2563 15.5251 19.5999C14.8688 18.9435 14.5 18.0533 14.5 17.125ZM25.1925 24.3886C24.2166 22.9745 22.8444 21.8804 21.2484 21.2441C22.1057 20.5688 22.7313 19.6432 23.0382 18.596C23.345 17.5487 23.3179 16.4319 22.9606 15.4008C22.6033 14.3696 21.9336 13.4755 21.0445 12.8426C20.1554 12.2098 19.0913 11.8697 18 11.8697C16.9087 11.8697 15.8446 12.2098 14.9555 12.8426C14.0665 13.4755 13.3967 14.3696 13.0394 15.4008C12.6821 16.4319 12.655 17.5487 12.9618 18.596C13.2687 19.6432 13.8943 20.5688 14.7516 21.2441C13.1556 21.8804 11.7834 22.9745 10.8075 24.3886C9.57438 23.0019 8.7684 21.2883 8.48662 19.4541C8.20484 17.62 8.45927 15.7435 9.21929 14.0506C9.9793 12.3577 11.2125 10.9206 12.7704 9.91231C14.3282 8.90404 16.1443 8.36761 18 8.36761C19.8557 8.36761 21.6718 8.90404 23.2297 9.91231C24.7875 10.9206 26.0207 12.3577 26.7807 14.0506C27.5407 15.7435 27.7952 17.62 27.5134 19.4541C27.2316 21.2883 26.4256 23.0019 25.1925 24.3886Z" fill="#EEF8FF"/>
</svg>
